<svg width="628" height="33" viewBox="0 0 628 33" fill="none" xmlns="http://www.w3.org/2000/svg">
<path d="M12.186 19.6562H6.38188V28.5059C6.38188 29.7666 6.08231 30.7277 5.48317 31.3893C4.88403 32.0383 4.13512 32.3754 3.22393 32.3754C2.31274 32.3754 1.50142 32.0508 0.914762 31.4143C0.328107 30.7652 0.0410156 29.8041 0.0410156 28.5559V4.45311C0.0410156 3.05513 0.365553 2.06903 1.00214 1.46989C1.63872 0.870759 2.66225 0.571189 4.04775 0.571189H12.1735C14.5826 0.571189 16.4299 0.758422 17.7155 1.1204C19.0012 1.4699 20.0996 2.06905 21.0233 2.89286C21.9594 3.71667 22.6709 4.72771 23.1577 5.92598C23.6445 7.12425 23.8817 8.45984 23.8817 9.95768C23.8817 13.1406 22.8956 15.5621 20.9359 17.2097C18.9762 18.8449 16.0554 19.6687 12.1735 19.6687L12.186 19.6562ZM10.6507 5.32683H6.38188V14.8881H10.6507C12.1486 14.8881 13.3843 14.7258 14.3828 14.4138C15.3939 14.1017 16.1553 13.5899 16.692 12.8785C17.2163 12.167 17.4784 11.2309 17.4784 10.0825C17.4784 8.70949 17.079 7.57361 16.2676 6.71235C15.3564 5.78868 13.4841 5.32683 10.6632 5.32683H10.6507ZM28.3502 18.9073V3.86646C28.3502 2.59329 28.6373 1.63218 29.199 0.983116C29.7856 0.346534 30.547 0.0219776 31.4832 0.0219776C32.4193 0.0219776 33.2432 0.346534 33.8048 0.983116C34.3915 1.6197 34.6786 2.58081 34.6786 3.86646V19.2443C34.6786 20.9918 34.8658 22.4646 35.2528 23.6379C35.6522 24.7988 36.3512 25.71 37.3373 26.3715C38.3358 27.0081 39.7213 27.3326 41.5187 27.3326C43.9902 27.3326 45.7376 26.6836 46.7612 25.373C47.7847 24.0499 48.2965 22.0527 48.2965 19.3816V3.87895C48.2965 2.58082 48.5835 1.61971 49.1452 0.995611C49.7194 0.359028 50.4808 0.0344718 51.4294 0.0344718C52.3781 0.0344718 53.152 0.359028 53.7386 0.995611C54.3377 1.61971 54.6373 2.58082 54.6373 3.87895V18.9198C54.6373 21.3662 54.4002 23.4008 53.9134 25.0359C53.439 26.6711 52.5528 28.1065 51.2297 29.3422C50.0939 30.3907 48.7708 31.1646 47.2604 31.6514C45.7501 32.1382 43.9902 32.3754 41.9681 32.3754C39.559 32.3754 37.4995 32.1132 35.7645 31.614C34.0295 31.0897 32.6191 30.2784 31.5206 29.2049C30.4222 28.1065 29.6234 26.721 29.1116 25.0235C28.5998 23.3134 28.3377 21.2789 28.3377 18.9198L28.3502 18.9073ZM69.1414 18.4704H66.9196V28.5184C66.9196 29.8415 66.6325 30.8151 66.0459 31.4392C65.4592 32.0633 64.6978 32.3754 63.7617 32.3754C62.7506 32.3754 61.9643 32.0508 61.415 31.3893C60.8534 30.7402 60.5787 29.7791 60.5787 28.5059V4.44062C60.5787 3.08008 60.8908 2.08151 61.5024 1.46989C62.114 0.858276 63.1001 0.558733 64.4731 0.558733H74.7708C76.1937 0.558733 77.4045 0.621135 78.4155 0.745955C79.4266 0.858293 80.3378 1.10792 81.1491 1.46989C82.1352 1.8818 82.9964 2.46847 83.7453 3.24236C84.4943 4.00376 85.0684 4.90246 85.4554 5.92598C85.8548 6.93702 86.0545 8.0105 86.0545 9.14636C86.0545 11.4805 85.393 13.3403 84.0699 14.7383C82.7593 16.1363 80.7746 17.1223 78.1035 17.709C79.2269 18.3081 80.3003 19.1819 81.3238 20.3552C82.3474 21.516 83.2585 22.7642 84.0574 24.0873C84.8687 25.3979 85.4928 26.5837 85.9297 27.6447C86.3915 28.6931 86.6162 29.4296 86.6162 29.8166C86.6162 30.2035 86.4789 30.6404 86.2043 31.0523C85.9547 31.4517 85.5927 31.7637 85.1433 31.9884C84.694 32.2256 84.1572 32.3504 83.5706 32.3504C82.8591 32.3504 82.26 32.1756 81.7732 31.8386C81.2864 31.5141 80.8745 31.0897 80.5125 30.5779C80.1755 30.0662 79.7012 29.3173 79.102 28.3187L76.5682 24.0998C75.657 22.552 74.8457 21.3662 74.1217 20.5549C73.4102 19.7436 72.6863 19.1944 71.9499 18.8948C71.2134 18.5952 70.2773 18.4454 69.1539 18.4454L69.1414 18.4704ZM72.7612 5.32683H66.9196V13.9269H72.5989C74.1217 13.9269 75.3949 13.8021 76.4434 13.54C77.4794 13.2654 78.2657 12.816 78.8149 12.1919C79.3642 11.5554 79.6512 10.6816 79.6512 9.57074C79.6512 8.70948 79.4266 7.94806 78.9897 7.28651C78.5528 6.61249 77.9412 6.12571 77.1548 5.7887C76.4184 5.47665 74.958 5.31437 72.7861 5.31437L72.7612 5.32683ZM94.717 4.191L101.794 25.1608L108.897 4.04118C109.271 2.93029 109.546 2.16891 109.733 1.73204C109.92 1.29517 110.22 0.895747 110.657 0.558733C111.081 0.196755 111.668 0.0219776 112.404 0.0219776C112.941 0.0219776 113.44 0.159289 113.902 0.421411C114.376 0.696015 114.738 1.05799 114.988 1.50734C115.262 1.94421 115.387 2.39358 115.387 2.85542C115.387 3.16747 115.35 3.50449 115.262 3.87895C115.175 4.24093 115.075 4.59041 114.938 4.95238C114.813 5.2894 114.688 5.65138 114.551 6.01336L106.974 26.4464C106.7 27.2328 106.438 27.9817 106.163 28.6931C105.888 29.3921 105.576 30.0038 105.227 30.553C104.877 31.0772 104.391 31.5141 103.804 31.8511C103.217 32.1881 102.506 32.3629 101.645 32.3629C100.783 32.3629 100.072 32.1881 99.4727 31.8511C98.886 31.5266 98.4117 31.0897 98.0497 30.553C97.6878 29.9913 97.3757 29.3672 97.1136 28.6807C96.839 27.9817 96.5769 27.2453 96.3023 26.4589L88.863 6.20059C88.7382 5.82613 88.6008 5.46415 88.4635 5.11466C88.3387 4.76516 88.2264 4.3782 88.1265 3.9663C88.0392 3.55439 88.0017 3.2049 88.0017 2.91781C88.0017 2.19386 88.2888 1.53231 88.8754 0.933178C89.4621 0.334041 90.1861 0.0344718 91.0723 0.0344718C92.1582 0.0344718 92.9196 0.371509 93.3565 1.03306C93.8059 1.68212 94.2802 2.74309 94.742 4.191H94.717ZM139.902 5.45166H125.635V13.1281H138.779C139.74 13.1281 140.464 13.3528 140.938 13.7897C141.425 14.2141 141.662 14.7882 141.662 15.4997C141.662 16.2112 141.425 16.7978 140.963 17.2472C140.489 17.684 139.765 17.9087 138.791 17.9087H125.647V26.8084H140.414C141.412 26.8084 142.161 27.0455 142.648 27.5074C143.16 27.9567 143.422 28.5683 143.422 29.3422C143.422 30.1161 143.16 30.6903 142.648 31.1521C142.149 31.6015 141.4 31.8386 140.414 31.8386H123.201C121.828 31.8386 120.829 31.5391 120.218 30.9274C119.619 30.3158 119.319 29.3297 119.319 27.9567V4.45311C119.319 3.54193 119.456 2.80549 119.731 2.23132C120.006 1.64466 120.417 1.23274 120.992 0.970622C121.578 0.696018 122.315 0.571189 123.213 0.571189H139.939C140.95 0.571189 141.699 0.795888 142.174 1.25772C142.673 1.69459 142.923 2.28124 142.923 3.0052C142.923 3.72915 142.673 4.34076 142.174 4.79011C141.687 5.22698 140.938 5.45166 139.939 5.45166H139.902ZM154.531 28.5059V18.5828L146.892 6.7498C146.218 5.68883 145.743 4.85253 145.456 4.2534C145.182 3.65426 145.057 3.13002 145.057 2.69315C145.057 1.96919 145.332 1.34509 145.893 0.820844C146.467 0.2966 147.154 0.0344718 147.978 0.0344718C148.839 0.0344718 149.501 0.284119 149.937 0.7834C150.387 1.2702 151.061 2.24379 151.96 3.70418L157.801 13.1905L163.705 3.70418C164.055 3.11753 164.354 2.63074 164.604 2.23132C164.841 1.83189 165.103 1.4699 165.39 1.1204C165.69 0.758422 166.014 0.496308 166.376 0.309077C166.738 0.121847 167.163 0.0344718 167.674 0.0344718C168.473 0.0344718 169.135 0.2966 169.659 0.820844C170.196 1.33261 170.47 1.93175 170.47 2.61826C170.47 3.16746 170.333 3.72914 170.071 4.27835C169.796 4.82755 169.334 5.60145 168.685 6.58752L160.859 18.5952V28.5184C160.859 29.8165 160.56 30.7777 159.96 31.4143C159.361 32.0508 158.6 32.3754 157.676 32.3754C156.753 32.3754 155.979 32.0633 155.392 31.4392C154.805 30.8026 154.518 29.829 154.518 28.5184L154.531 28.5059ZM187.146 0.0344718C190.392 0.0344718 193.163 0.696014 195.484 2.01911C197.818 3.32972 199.578 5.20204 200.777 7.62355C201.975 10.0451 202.574 12.891 202.574 16.1612C202.574 18.5827 202.249 20.7796 201.588 22.7517C200.939 24.7239 199.953 26.4464 198.642 27.8943C197.332 29.3422 195.721 30.4531 193.824 31.227C191.914 32.0009 189.73 32.3754 187.271 32.3754C184.812 32.3754 182.64 31.9884 180.706 31.202C178.771 30.4032 177.161 29.2923 175.863 27.8569C174.564 26.4214 173.591 24.6989 172.917 22.6768C172.268 20.6548 171.931 18.4704 171.931 16.1238C171.931 13.7772 172.268 11.5179 172.954 9.50831C173.653 7.49871 174.652 5.80115 175.962 4.39068C177.273 2.98021 178.858 1.90678 180.743 1.17034C182.615 0.421418 184.75 0.0344718 187.146 0.0344718ZM196.158 16.1238C196.158 13.8396 195.784 11.8549 195.047 10.1699C194.311 8.48478 193.25 7.22413 191.864 6.37535C190.504 5.50161 188.931 5.07721 187.146 5.07721C185.886 5.07721 184.712 5.31435 183.626 5.80115C182.565 6.27547 181.629 6.96198 180.855 7.87317C180.081 8.78436 179.482 9.94521 179.02 11.3682C178.584 12.7786 178.359 14.3638 178.359 16.1238C178.359 17.8838 178.584 19.5064 179.02 20.9418C179.47 22.3773 180.106 23.5755 180.918 24.5242C181.742 25.4603 182.678 26.1718 183.739 26.6336C184.8 27.1079 185.973 27.3326 187.234 27.3326C188.856 27.3326 190.342 26.9207 191.69 26.1219C193.05 25.3105 194.136 24.0624 194.935 22.3648C195.746 20.6672 196.146 18.5952 196.146 16.1113L196.158 16.1238ZM215.63 18.4704H213.408V28.5184C213.408 29.8415 213.121 30.8151 212.535 31.4392C211.948 32.0633 211.187 32.3754 210.25 32.3754C209.239 32.3754 208.453 32.0508 207.904 31.3893C207.355 30.7402 207.068 29.7791 207.068 28.5059V4.44062C207.068 3.08008 207.367 2.08151 207.979 1.46989C208.59 0.858276 209.576 0.558733 210.949 0.558733H221.247C222.67 0.558733 223.881 0.621135 224.892 0.745955C225.903 0.858293 226.814 1.10792 227.625 1.46989C228.611 1.8818 229.473 2.46847 230.222 3.24236C230.971 4.00376 231.545 4.90246 231.932 5.92598C232.331 6.93702 232.531 8.0105 232.531 9.14636C232.531 11.4805 231.869 13.3403 230.546 14.7383C229.236 16.1363 227.251 17.1223 224.567 17.709C225.691 18.3081 226.764 19.1819 227.788 20.3552C228.811 21.516 229.722 22.7642 230.521 24.0873C231.333 25.3979 231.957 26.5837 232.394 27.6447C232.843 28.6931 233.08 29.4296 233.08 29.8166C233.08 30.2035 232.943 30.6404 232.681 31.0523C232.419 31.4517 232.069 31.7637 231.62 31.9884C231.158 32.2256 230.634 32.3504 230.047 32.3504C229.335 32.3504 228.736 32.1756 228.262 31.8386C227.775 31.5141 227.363 31.0897 227.001 30.5779C226.664 30.0662 226.19 29.3173 225.591 28.3187L223.057 24.0998C222.146 22.552 221.334 21.3662 220.598 20.5549C219.887 19.7436 219.163 19.1944 218.426 18.8948C217.69 18.5952 216.754 18.4454 215.63 18.4454V18.4704ZM219.25 5.32683H213.408V13.9269H219.088C220.611 13.9269 221.884 13.8021 222.932 13.54C223.968 13.2654 224.755 12.816 225.304 12.1919C225.865 11.5554 226.14 10.6816 226.14 9.57074C226.14 8.70948 225.915 7.94806 225.479 7.28651C225.042 6.61249 224.43 6.12571 223.644 5.7887C222.907 5.47665 221.447 5.31437 219.275 5.31437L219.25 5.32683ZM261.452 22.4521C261.452 24.3494 260.965 26.047 259.979 27.5448C259.018 29.0551 257.595 30.2284 255.71 31.0897C253.838 31.9385 251.603 32.3629 249.032 32.3629C245.949 32.3629 243.403 31.7762 241.393 30.6154C239.97 29.7791 238.809 28.6557 237.911 27.2702C237.024 25.8598 236.588 24.4992 236.588 23.1761C236.588 22.4022 236.85 21.7532 237.374 21.2164C237.911 20.6672 238.597 20.3802 239.421 20.3802C240.095 20.3802 240.657 20.5923 241.106 21.0167C241.58 21.4411 241.967 22.0777 242.304 22.914C242.704 23.9126 243.128 24.7364 243.577 25.4104C244.052 26.0844 244.701 26.6336 245.537 27.0705C246.373 27.4949 247.484 27.7071 248.845 27.7071C250.717 27.7071 252.24 27.2702 253.413 26.409C254.599 25.5227 255.186 24.4368 255.186 23.1262C255.186 22.0902 254.861 21.2539 254.225 20.6048C253.6 19.9558 252.777 19.4565 251.778 19.107C250.78 18.77 249.444 18.408 247.771 18.021C245.525 17.4968 243.64 16.8852 242.117 16.1862C240.607 15.4747 239.408 14.5136 238.51 13.3028C237.624 12.0796 237.187 10.5693 237.187 8.75938C237.187 6.94949 237.661 5.51408 238.597 4.17851C239.533 2.84293 240.894 1.81942 242.666 1.10794C244.439 0.383988 246.536 0.0219776 248.932 0.0219776C250.854 0.0219776 252.515 0.259157 253.9 0.745955C255.311 1.22027 256.471 1.84436 257.395 2.64321C258.319 3.42957 258.993 4.2534 259.417 5.11466C259.841 5.9884 260.054 6.82469 260.054 7.6485C260.054 8.39742 259.779 9.08391 259.242 9.69553C258.718 10.2947 258.057 10.5942 257.258 10.5942C256.534 10.5942 255.972 10.4195 255.598 10.0575C255.223 9.68306 254.824 9.09642 254.387 8.2726C253.813 7.08681 253.139 6.17561 252.34 5.52655C251.541 4.85252 250.268 4.528 248.495 4.528C246.86 4.528 245.537 4.88997 244.526 5.61393C243.527 6.3254 243.028 7.18667 243.028 8.19771C243.028 8.82181 243.203 9.35853 243.54 9.82036C243.877 10.2697 244.351 10.6691 244.95 10.9937C245.55 11.3182 246.149 11.5803 246.76 11.7551C247.372 11.9423 248.383 12.2044 249.793 12.5664C251.553 12.9783 253.151 13.4402 254.574 13.9269C256.01 14.4262 257.22 15.0254 258.219 15.7369C259.23 16.4483 260.004 17.347 260.565 18.4454C261.14 19.5314 261.414 20.8545 261.414 22.4397L261.452 22.4521ZM289.761 0.0344718C293.006 0.0344718 295.79 0.696014 298.099 2.01911C300.433 3.32972 302.193 5.20204 303.391 7.62355C304.589 10.0451 305.189 12.891 305.189 16.1612C305.189 18.5827 304.864 20.7796 304.203 22.7517C303.553 24.7239 302.567 26.4464 301.257 27.8943C299.946 29.3422 298.348 30.4531 296.439 31.227C294.529 32.0009 292.345 32.3754 289.886 32.3754C287.427 32.3754 285.255 31.9884 283.32 31.202C281.385 30.4032 279.775 29.2923 278.477 27.8569C277.179 26.4214 276.205 24.6989 275.531 22.6768C274.882 20.6548 274.545 18.4704 274.545 16.1238C274.545 13.7772 274.882 11.5179 275.569 9.50831C276.268 7.49871 277.266 5.80115 278.577 4.39068C279.888 2.98021 281.473 1.90678 283.358 1.17034C285.23 0.421418 287.364 0.0344718 289.761 0.0344718ZM298.76 16.1238C298.76 13.8396 298.386 11.8549 297.649 10.1699C296.913 8.48478 295.852 7.22413 294.467 6.37535C293.106 5.50161 291.533 5.07721 289.748 5.07721C288.488 5.07721 287.314 5.31435 286.228 5.80115C285.167 6.27547 284.231 6.96198 283.457 7.87317C282.696 8.78436 282.072 9.94521 281.623 11.3682C281.186 12.7786 280.961 14.3638 280.961 16.1238C280.961 17.8838 281.186 19.5064 281.623 20.9418C282.072 22.3773 282.709 23.5755 283.52 24.5242C284.344 25.4603 285.28 26.1718 286.341 26.6336C287.402 27.1079 288.575 27.3326 289.836 27.3326C291.458 27.3326 292.944 26.9207 294.292 26.1219C295.652 25.3105 296.738 24.0624 297.537 22.3648C298.348 20.6672 298.748 18.5952 298.748 16.1113L298.76 16.1238ZM328.418 5.45166H315.936V13.4526H326.371C327.332 13.4526 328.056 13.6773 328.53 14.1142C329.017 14.5386 329.254 15.1128 329.254 15.8492C329.254 16.5856 329.017 17.1473 328.53 17.5717C328.043 17.9961 327.332 18.2083 326.371 18.2083H315.936V28.5059C315.936 29.8165 315.636 30.7901 315.037 31.4267C314.45 32.0508 313.701 32.3629 312.778 32.3629C311.854 32.3629 311.068 32.0383 310.469 31.4018C309.882 30.7652 309.595 29.7916 309.595 28.5059V4.44062C309.595 3.52943 309.732 2.79299 309.994 2.21882C310.269 1.63217 310.681 1.22025 311.255 0.958128C311.842 0.683524 312.578 0.558733 313.477 0.558733H328.405C329.416 0.558733 330.165 0.783394 330.639 1.24523C331.139 1.6821 331.388 2.26874 331.388 2.9927C331.388 3.71666 331.139 4.3283 330.639 4.77766C330.153 5.21453 329.404 5.4392 328.405 5.4392L328.418 5.45166ZM351.522 3.87895V26.6336H364.366C365.389 26.6336 366.176 26.8833 366.712 27.3825C367.262 27.8818 367.549 28.5059 367.549 29.2549C367.549 30.0038 367.274 30.6528 366.737 31.1272C366.201 31.6015 365.402 31.8261 364.366 31.8261H349.075C347.702 31.8261 346.704 31.5266 346.092 30.9149C345.493 30.3033 345.193 29.3173 345.193 27.9443V3.85396C345.193 2.5808 345.481 1.61969 346.042 0.970622C346.629 0.33404 347.39 0.00952148 348.326 0.00952148C349.263 0.00952148 350.049 0.33404 350.636 0.970622C351.235 1.59472 351.534 2.55583 351.534 3.85396L351.522 3.87895ZM382.427 0.0344718C385.673 0.0344718 388.456 0.696014 390.765 2.01911C393.099 3.32972 394.859 5.20204 396.058 7.62355C397.256 10.0451 397.855 12.891 397.855 16.1612C397.855 18.5827 397.53 20.7796 396.869 22.7517C396.22 24.7239 395.234 26.4464 393.923 27.8943C392.613 29.3422 391.015 30.4531 389.105 31.227C387.195 32.0009 385.011 32.3754 382.552 32.3754C380.093 32.3754 377.921 31.9884 375.987 31.202C374.052 30.4032 372.442 29.2923 371.144 27.8569C369.845 26.4214 368.872 24.6989 368.198 22.6768C367.549 20.6548 367.212 18.4704 367.212 16.1238C367.212 13.7772 367.549 11.5179 368.235 9.50831C368.934 7.49871 369.933 5.80115 371.243 4.39068C372.554 2.98021 374.139 1.90678 376.024 1.17034C377.896 0.421418 380.031 0.0344718 382.427 0.0344718ZM391.427 16.1238C391.427 13.8396 391.052 11.8549 390.316 10.1699C389.579 8.48478 388.518 7.22413 387.133 6.37535C385.772 5.50161 384.2 5.07721 382.415 5.07721C381.154 5.07721 379.981 5.31435 378.895 5.80115C377.834 6.27547 376.898 6.96198 376.124 7.87317C375.362 8.78436 374.738 9.94521 374.289 11.3682C373.852 12.7786 373.627 14.3638 373.627 16.1238C373.627 17.8838 373.852 19.5064 374.289 20.9418C374.738 22.3773 375.375 23.5755 376.186 24.5242C377.01 25.4603 377.946 26.1718 379.007 26.6336C380.068 27.1079 381.241 27.3326 382.502 27.3326C384.125 27.3326 385.61 26.9207 386.958 26.1219C388.319 25.3105 389.405 24.0624 390.204 22.3648C391.015 20.6672 391.414 18.5952 391.414 16.1113L391.427 16.1238ZM429.035 21.9654C429.035 22.9639 428.785 24.0374 428.286 25.2107C427.799 26.359 427.038 27.4949 425.977 28.6183C424.928 29.7292 423.58 30.6279 421.945 31.3269C420.31 32.0259 418.4 32.3754 416.229 32.3754C414.581 32.3754 413.083 32.2256 411.723 31.901C410.374 31.589 409.139 31.1022 408.028 30.4531C406.929 29.7791 405.918 28.9054 404.995 27.8319C404.171 26.8458 403.472 25.7599 402.885 24.5491C402.299 23.3259 401.862 22.0278 401.562 20.6423C401.275 19.2568 401.138 17.7964 401.138 16.2486C401.138 13.7272 401.5 11.4805 402.224 9.48336C402.96 7.48624 404.021 5.78866 405.382 4.39068C406.742 2.96773 408.352 1.88183 410.187 1.14539C412.022 0.40895 413.982 0.0344718 416.054 0.0344718C418.588 0.0344718 420.834 0.533741 422.819 1.54478C424.791 2.55583 426.314 3.80404 427.362 5.30188C428.411 6.77476 428.948 8.18522 428.948 9.50831C428.948 10.2323 428.686 10.8689 428.174 11.4305C427.662 11.9922 427.05 12.2669 426.314 12.2669C425.503 12.2669 424.891 12.0796 424.479 11.6927C424.08 11.3057 423.63 10.6442 423.131 9.70803C422.307 8.16026 421.334 6.99942 420.21 6.22554C419.099 5.45165 417.726 5.07721 416.091 5.07721C413.482 5.07721 411.41 6.0633 409.863 8.04794C408.327 10.0201 407.554 12.8285 407.554 16.4733C407.554 18.9073 407.891 20.9294 408.577 22.552C409.264 24.1622 410.225 25.3605 411.473 26.1593C412.721 26.9581 414.194 27.3576 415.867 27.3576C417.689 27.3576 419.224 26.9082 420.472 26.0095C421.733 25.0983 422.694 23.7752 423.331 22.0278C423.605 21.2039 423.93 20.5299 424.329 20.0182C424.729 19.4939 425.365 19.2318 426.252 19.2318C427 19.2318 427.65 19.4939 428.186 20.0182C428.723 20.5424 428.998 21.204 428.998 21.9779L429.035 21.9654ZM453.862 28.2938L452.364 24.3744H439.645L438.147 28.3811C437.56 29.9413 437.061 31.0023 436.649 31.564C436.237 32.1008 435.563 32.3754 434.627 32.3754C433.828 32.3754 433.129 32.0882 432.518 31.5016C431.906 30.9149 431.594 30.2534 431.594 29.517C431.594 29.0926 431.669 28.6432 431.806 28.1939C431.943 27.7445 432.181 27.108 432.505 26.2966L440.506 5.98841C440.731 5.40176 441.005 4.71523 441.317 3.9039C441.642 3.08009 441.991 2.39356 442.341 1.85683C442.715 1.32011 443.19 0.883265 443.764 0.558733C444.363 0.221719 445.099 0.046966 445.961 0.046966C446.822 0.046966 447.571 0.221719 448.158 0.558733C448.757 0.883265 449.231 1.30765 449.593 1.84438C449.967 2.36862 450.267 2.94279 450.504 3.55441C450.766 4.15354 451.078 4.95238 451.465 5.96342L459.641 26.1468C460.277 27.6821 460.602 28.793 460.602 29.492C460.602 30.191 460.302 30.89 459.678 31.5016C459.079 32.1007 458.355 32.4003 457.507 32.4003C457.007 32.4003 456.583 32.3129 456.221 32.1257C455.859 31.9509 455.572 31.7263 455.322 31.4267C455.085 31.1147 454.823 30.6404 454.536 30.0163C454.261 29.3797 454.036 28.818 453.837 28.3312L453.862 28.2938ZM441.33 19.6187H450.679L445.961 6.71235L441.33 19.6187ZM470.638 3.87895V26.6336H483.482C484.505 26.6336 485.291 26.8833 485.828 27.3825C486.39 27.8818 486.664 28.5059 486.664 29.2549C486.664 30.0038 486.39 30.6528 485.853 31.1272C485.316 31.6015 484.518 31.8261 483.482 31.8261H468.191C466.818 31.8261 465.82 31.5266 465.208 30.9149C464.609 30.3033 464.309 29.3173 464.309 27.9443V3.85396C464.309 2.5808 464.596 1.61969 465.158 0.970622C465.745 0.33404 466.506 0.00952148 467.442 0.00952148C468.378 0.00952148 469.165 0.33404 469.751 0.970622C470.35 1.59472 470.65 2.55583 470.65 3.85396L470.638 3.87895ZM528.579 19.1195V25.1108C528.579 25.9097 528.504 26.5463 528.342 27.0331C528.192 27.5074 527.893 27.9317 527.468 28.3062C527.056 28.6931 526.52 29.0551 525.87 29.4171C523.973 30.4406 522.163 31.1896 520.403 31.6514C518.656 32.1257 516.746 32.3504 514.687 32.3504C512.278 32.3504 510.093 31.9759 508.121 31.2395C506.149 30.503 504.464 29.4296 503.066 28.0191C501.668 26.6087 500.594 24.9111 499.845 22.9015C499.109 20.8919 498.735 18.6576 498.735 16.1862C498.735 13.7148 499.097 11.5304 499.82 9.50831C500.544 7.48622 501.605 5.7762 503.016 4.36573C504.426 2.95526 506.136 1.88183 508.159 1.14539C510.181 0.396468 512.465 0.00952148 515.024 0.00952148C517.133 0.00952148 518.993 0.296598 520.616 0.858289C522.238 1.4075 523.549 2.11897 524.56 2.96775C525.571 3.81653 526.332 4.72773 526.844 5.67636C527.356 6.62499 527.618 7.47377 527.618 8.21021C527.618 9.00906 527.318 9.68307 526.719 10.2572C526.133 10.8064 525.434 11.0935 524.61 11.0935C524.16 11.0935 523.711 10.9812 523.287 10.769C522.875 10.5568 522.525 10.2572 522.238 9.8703C521.452 8.64706 520.79 7.72339 520.254 7.09929C519.717 6.47519 518.98 5.95093 518.057 5.52655C517.146 5.10216 515.985 4.88999 514.562 4.88999C513.139 4.88999 511.791 5.13961 510.642 5.65137C509.494 6.15065 508.508 6.87462 507.672 7.84822C506.86 8.79685 506.236 9.97017 505.799 11.3682C505.375 12.7661 505.163 14.3014 505.163 15.999C505.163 19.6687 505.999 22.4896 507.684 24.4743C509.382 26.4464 511.728 27.4449 514.749 27.4449C516.209 27.4449 517.582 27.2577 518.868 26.8708C520.166 26.4838 521.477 25.9346 522.787 25.2232V20.143H517.882C516.696 20.143 515.81 19.9682 515.198 19.6062C514.599 19.2443 514.3 18.6452 514.3 17.7964C514.3 17.0974 514.549 16.5232 515.049 16.0739C515.56 15.6245 516.247 15.3874 517.121 15.3874H524.31C525.196 15.3874 525.933 15.4622 526.544 15.6245C527.156 15.7743 527.643 16.1238 528.017 16.673C528.404 17.2097 528.592 18.021 528.592 19.107L528.579 19.1195ZM547.489 0.0344718C550.735 0.0344718 553.518 0.696014 555.827 2.01911C558.161 3.32972 559.921 5.20204 561.12 7.62355C562.318 10.0451 562.905 12.891 562.905 16.1612C562.905 18.5827 562.58 20.7796 561.918 22.7517C561.269 24.7239 560.283 26.4464 558.973 27.8943C557.662 29.3422 556.052 30.4531 554.155 31.227C552.245 32.0009 550.073 32.3754 547.602 32.3754C545.13 32.3754 542.971 31.9884 541.036 31.202C539.101 30.4032 537.491 29.2923 536.193 27.8569C534.895 26.4214 533.921 24.6989 533.247 22.6768C532.598 20.6548 532.261 18.4704 532.261 16.1238C532.261 13.7772 532.598 11.5179 533.285 9.50831C533.984 7.49871 534.982 5.80115 536.293 4.39068C537.604 2.98021 539.189 1.90678 541.074 1.17034C542.946 0.421418 545.08 0.0344718 547.477 0.0344718H547.489ZM556.501 16.1238C556.501 13.8396 556.127 11.8549 555.39 10.1699C554.654 8.48478 553.593 7.22413 552.208 6.37535C550.847 5.50161 549.274 5.07721 547.489 5.07721C546.229 5.07721 545.055 5.31435 543.969 5.80115C542.908 6.27547 541.972 6.96198 541.198 7.87317C540.424 8.78436 539.813 9.94521 539.364 11.3682C538.927 12.7786 538.702 14.3638 538.702 16.1238C538.702 17.8838 538.927 19.5064 539.364 20.9418C539.813 22.3773 540.449 23.5755 541.261 24.5242C542.085 25.4603 543.021 26.1718 544.082 26.6336C545.143 27.1079 546.316 27.3326 547.577 27.3326C549.199 27.3326 550.685 26.9207 552.033 26.1219C553.393 25.3105 554.479 24.0624 555.278 22.3648C556.089 20.6672 556.489 18.5952 556.489 16.1113L556.501 16.1238ZM581.216 0.0344718C584.461 0.0344718 587.245 0.696014 589.554 2.01911C591.888 3.32972 593.648 5.20204 594.846 7.62355C596.044 10.0451 596.643 12.891 596.643 16.1612C596.643 18.5827 596.319 20.7796 595.657 22.7517C595.008 24.7239 594.022 26.4464 592.712 27.8943C591.401 29.3422 589.803 30.4531 587.894 31.227C585.984 32.0009 583.799 32.3754 581.34 32.3754C578.882 32.3754 576.71 31.9884 574.775 31.202C572.84 30.4032 571.23 29.2923 569.932 27.8569C568.634 26.4214 567.66 24.6989 566.986 22.6768C566.337 20.6548 566 18.4704 566 16.1238C566 13.7772 566.337 11.5179 567.024 9.50831C567.723 7.49871 568.721 5.80115 570.032 4.39068C571.342 2.98021 572.928 1.90678 574.812 1.17034C576.685 0.421418 578.819 0.0344718 581.216 0.0344718ZM590.228 16.1238C590.228 13.8396 589.853 11.8549 589.117 10.1699C588.38 8.48478 587.319 7.22413 585.934 6.37535C584.573 5.50161 583.001 5.07721 581.216 5.07721C579.955 5.07721 578.782 5.31435 577.696 5.80115C576.635 6.27547 575.699 6.96198 574.925 7.87317C574.163 8.78436 573.552 9.94521 573.09 11.3682C572.653 12.7786 572.428 14.3638 572.428 16.1238C572.428 17.8838 572.653 19.5064 573.09 20.9418C573.539 22.3773 574.176 23.5755 574.987 24.5242C575.811 25.4603 576.747 26.1718 577.808 26.6336C578.869 27.1079 580.042 27.3326 581.303 27.3326C582.926 27.3326 584.411 26.9207 585.759 26.1219C587.12 25.3105 588.206 24.0624 589.004 22.3648C589.816 20.6672 590.215 18.5952 590.215 16.1113L590.228 16.1238ZM605.119 0.571189H613.369C615.516 0.571189 617.364 0.770915 618.899 1.17034C620.434 1.56976 621.832 2.31869 623.08 3.40463C626.338 6.18812 627.961 10.432 627.961 16.1238C627.961 17.9961 627.799 19.7186 627.474 21.2664C627.149 22.8141 626.638 24.2121 625.964 25.4728C625.277 26.7085 624.403 27.8194 623.342 28.8055C622.506 29.5544 621.582 30.166 620.584 30.6154C619.585 31.0647 618.512 31.3893 617.364 31.5765C616.228 31.7638 614.942 31.8511 613.507 31.8511H605.256C604.108 31.8511 603.234 31.6764 602.647 31.3394C602.061 30.9774 601.686 30.4906 601.499 29.8665C601.324 29.2299 601.237 28.4061 601.237 27.395V4.46561C601.237 3.10507 601.536 2.1065 602.16 1.49488C602.772 0.883265 603.758 0.583683 605.131 0.583683L605.119 0.571189ZM607.565 5.57649V26.8084H612.371C613.419 26.8084 614.243 26.7834 614.842 26.721C615.441 26.6586 616.053 26.5213 616.702 26.2966C617.339 26.0719 617.9 25.7474 618.362 25.3355C620.484 23.5381 621.545 20.455 621.545 16.0739C621.545 12.9908 621.071 10.6816 620.135 9.14636C619.211 7.61107 618.063 6.63744 616.702 6.22554C615.341 5.80115 613.694 5.58898 611.759 5.58898H607.578L607.565 5.57649Z" fill="black"/>
</svg>
