<?xml version="1.0" encoding="UTF-8"?>
<svg id="_圖層_1" data-name="圖層 1" xmlns="http://www.w3.org/2000/svg" viewBox="0 0 596 830">
  <rect x="48.16" y="30.29" width="499.54" height="769.72" transform="translate(-50.34 41.22) rotate(-7.3)" fill="#f3f1ed"/>
  <rect x="48.16" y="30.29" width="499.54" height="769.72" transform="translate(-50.34 41.22) rotate(-7.3)" fill="none"/>
  <rect x="48.16" y="30.29" width="499.54" height="769.72" transform="translate(-50.34 41.22) rotate(-7.3)" fill="none" stroke="#000" stroke-dasharray="0 0 3.27 3.27" stroke-miterlimit="4" stroke-width="1.09"/>
  <text transform="translate(215.02 494.14) rotate(-8.53)" font-family="Impact, Impact" font-size="44.5"><tspan x="0" y="0">This Month: </tspan><tspan x="-35.21" y="53.4">Local Grill Gea</tspan><tspan x="223.49" y="53.4" letter-spacing="-.07em">r</tspan><tspan x="236.31" y="53.4">, </tspan><tspan x="72.55" y="106.79">Our </tspan><tspan x="30.92" y="160.19">Favorite </tspan><tspan x="9.62" y="213.58">Sunscreen</tspan></text>
  <path d="M233.6,235.2s.02,.01,.03,.01c.02,0,.05,.01,.06,.02-.03-.01-.06-.02-.1-.03h0Zm116.41,78.4c.11,.07,.2,.15,.31,.23-.11-.08-.22-.15-.32-.23h0Zm107.08-152.09c-.35-2.19-1.51-3.99-3.45-5.37-1.95-1.39-4.11-1.88-6.6-1.51-1.56,.23-2.88,.74-3.93,1.49-1,.74-1.87,1.69-2.58,2.87-.65,1.07-1.21,2.19-1.69,3.35,.08-.21,.17-.41,.27-.62l-11.86,26.84c-.1,.03-.2,.07-.3,.08-.53,.08-1.04-.12-1.4-.52l-15.16-17.72c-2.91-3.42-5.1-5.73-6.5-6.85-1.74-1.4-3.9-1.88-6.61-1.47-.73,.11-1.41,.27-2.04,.51-.81,0-1.67,.06-2.59,.2l-50.84,7.63c-1.4,.21-2.65,.55-3.72,1.04-1.14-.15-2.41-.12-3.81,.09l-42.22,6.33c-2.54,.38-4.53,1.07-6.1,2.09-1.46,.96-2.47,2.19-3.1,3.74l.11-.28-1.27,2.87c-.73-2.06-1.81-3.66-3.22-4.77-2.15-1.69-4.63-2.3-7.54-1.86-2.92,.44-5.01,1.77-6.48,4.01-.26,.4-.49,.82-.69,1.28,0,0,0-.01,0-.02l-3.58,8.11c-.86-.92-1.81-1.76-2.81-2.51-2.37-1.77-5.01-3.04-7.88-3.77-2.34-.67-4.92-.95-7.67-.88-2.66,.08-5.85,.4-9.49,.95l-26.01,3.9c-3.89,.58-6.67,1.97-8.24,4.1-.35,.47-.64,.99-.87,1.54,.02-.03,.02-.06,.03-.09l-9.47,21.41c-3.02-5.02-5.09-8.46-5.13-8.51-1.34-2.34-2.47-4.27-3.36-5.72-.92-1.51-2-2.93-3.22-4.22-1.3-1.37-2.91-2.43-4.77-3.14-1.9-.72-4.14-.89-6.64-.52s-4.54,1.19-6.12,2.43c-1.56,1.23-2.76,2.72-3.57,4.45-.07,.15-.15,.31-.21,.47,.02-.05,.04-.11,.07-.16l-3.92,8.87c.1-.66,.18-1.33,.23-2,.08-1.07,.04-2.08-.1-2.99-.23-1.44-.87-2.82-1.91-4.09-1.03-1.25-2.34-2.2-3.88-2.81-1.55-.62-3.19-.8-4.85-.55-2.26,.34-4.02,1.19-5.22,2.52-.79,.88-1.39,1.81-1.81,2.78,.02-.03,.02-.07,.04-.11l-14.88,33.67c-.19,.44-.35,.89-.47,1.35-.31,1.2-.7,3.32-1.2,6.28l-.67,3.97c-6.53-12.44-16.94-32.28-17.01-32.39-1.83-3.59-3.51-6.22-5-7.82-1.81-1.93-4.4-2.66-7.71-2.16-2.72,.41-4.79,1.64-6.32,3.78-.46,.64-.83,1.28-1.11,1.94,0-.02,0-.03,.01-.04l-14.9,33.71c-.67,1.51-.86,3.05-.61,4.68,.13,.85,.42,1.81,.87,2.94,.43,1.08,.91,2.09,1.44,3,.46,.82,.93,1.65,1.4,2.52,.22,.39,7.09,12.68,13.85,24.77,6.61,11.82,13.1,23.45,13.15,23.54,.99,1.85,1.98,3.63,2.94,5.29,1.02,1.75,2.15,3.31,3.37,4.64,1.32,1.44,2.93,2.53,4.81,3.24,1.9,.72,4.1,.9,6.53,.54,.95-.14,14.64-1.95,17.86-2.68l-8.56,19.37c-1.68,3.81-2.18,7.94-1.48,12.29,.78,4.9,2.69,8.88,5.67,11.86,1.73,1.73,3.74,3.18,6,4.34l-6.81,15.41c-.67,1.51-.85,3.12-.57,4.89,.58,3.64,2.41,7.23,5.42,10.65,2.97,3.38,6.6,5.95,10.77,7.62,5.79,2.28,12.82,2.83,20.87,1.62,6.71-1.01,12.44-3.02,17.02-6,4.65-3.03,8.02-6.83,10-11.27l10.71-24.25,3.77,23.61c.59,3.69,1.95,6.39,4.03,8.05,2.13,1.69,4.66,2.34,7.5,1.91s4.99-1.76,6.48-3.98c.26-.4,.49-.81,.69-1.26l9.79-22.14c2.48,4.46,5.59,8.23,9.25,11.21,4.03,3.28,8.83,5.61,14.26,6.92,5.39,1.31,11.36,1.47,17.73,.52,6.37-.96,11.55-2.71,16.36-5.55,4.71-2.77,8.53-6.39,11.38-10.74,.93-1.42,1.75-2.9,2.47-4.44l.68,4.4c.58,3.59,1.86,6.27,3.84,7.97,2.05,1.77,4.65,2.44,7.71,1.99,2.89-.43,5.02-1.72,6.54-3.95,.27-.4,.51-.82,.7-1.26l12.75-28.84s.03,.03,.06,.05c2.04,1.69,4.52,4.3,7.37,7.77l8.11,9.68c1.96,2.34,3.44,4.05,4.55,5.24,1.23,1.31,2.63,2.35,4.17,3.1,1.67,.81,3.6,1.06,5.74,.74,1.77-.27,3.32-.86,4.59-1.79,.75-.54,1.39-1.16,1.91-1.86,.46,.15,.95,.26,1.46,.35,1.54,.26,3.3,.24,5.27-.06l43.47-6.52c2.94-.44,5.12-1.52,6.47-3.21,.43-.53,.78-1.1,1.04-1.69l14.88-33.67s-.02,.05-.03,.08c.62-1.36,.8-2.88,.54-4.54-.39-2.42-1.53-4.27-3.4-5.52-1.83-1.21-4.24-1.61-7.18-1.17l-10.83,1.62,10.93-24.73s-.05,.1-.07,.15c.64-1.37,.84-2.89,.57-4.56-.42-2.62-1.29-4.19-2.91-5.27-1.74-1.15-4.08-1.52-6.94-1.09l-1.68,.25s9.45-21.38,9.43-21.35c.53-1.16,10.19-25.49,10.19-25.49,.89-2.02,1.11-4.55,.63-7.54l-3.63-22.7v-.02c.18-.41,.36-.8,.53-1.18l14.88-33.67c-.06,.14-.13,.29-.2,.44,.99-2.21,1.68-3.96,2.09-5.3,.53-1.74,.67-3.47,.4-5.11h-.03s0,0,0,0Zm-113.84,22.57s0,0,0-.02c1.36-1.69,1.86-3.74,1.48-6.08-.34-2.13-1.3-3.8-2.87-5.01l51.17-7.67c2.54-.38,4.52-.12,5.88,.78,1.35,.89,2.14,2.17,2.42,3.92,.28,1.74-.08,3.19-1.11,4.42-1.03,1.24-2.84,2.06-5.35,2.44l-14.25,2.14c-2.21,.33-3.72,2.4-3.37,4.6l8.64,54.04c.41,2.6,.26,4.71-.46,6.28-.05,.1-.1,.2-.15,.3-.02,.04-.04,.08-.06,.12-.08,.13-.15,.26-.23,.39-1.08,1.61-2.69,2.58-4.77,2.9s-3.99-.14-5.54-1.38c-1.57-1.25-2.62-3.42-3.1-6.45l-8.64-54.04c-.35-2.2-2.44-3.73-4.65-3.4l-14.25,2.14c-.44,.07-.86,.11-1.26,.14,.14-.15,.28-.3,.41-.45,.02-.02,.04-.04,.07-.07h0s0-.02,0-.02Zm-58.51,2.36c.06-.4,.14-.78,.24-1.14,.13-.43,.29-.83,.48-1.2,.02-.04,.05-.09,.08-.14l.06-.09s0-.02,.02-.03c.03-.05,.06-.09,.1-.14,.19-.28,.4-.55,.64-.79,.04-.04,.08-.08,.13-.13,.02-.02,.04-.04,.07-.07,.02-.02,.03-.03,.04-.04,.05-.05,.12-.1,.18-.15,.02-.02,.05-.04,.07-.06,.02-.01,.03-.02,.05-.04,.02-.01,.05-.04,.07-.06,.12-.09,.26-.19,.39-.28,1.26-.82,2.92-1.38,5.09-1.71l42.22-6.33c1.45-.22,2.7-.21,3.74,.03,.62,.14,1.17,.37,1.63,.68,1.23,.82,1.95,1.99,2.21,3.6,.03,.18,.05,.36,.06,.53,0,.05,0,.1,.01,.15,0,.15,.01,.29,.01,.43,0,.03,0,.06,0,.1,0,.16-.01,.33-.03,.49v.11c-.03,.13-.05,.25-.08,.38,0,.04-.01,.08-.03,.11-.03,.13-.07,.26-.11,.38,0,.02-.02,.04-.02,.06,0,0,0,.02-.02,.03,0,.02,0,.03-.02,.04-.04,.11-.09,.22-.13,.32-.02,.05-.06,.1-.08,.15-.04,.07-.07,.14-.11,.2-.03,.06-.06,.11-.09,.16-.21,.35-.48,.67-.78,.94-.97,.89-2.46,1.49-4.46,1.79l-32.84,4.92c-1.1,.17-2.03,.77-2.65,1.6-.3,.41-.51,.88-.65,1.37,0,.03-.02,.06-.02,.09-.01,.03-.01,.06-.02,.09-.02,.06-.03,.13-.03,.19,0,.01,0,.03,0,.04,0,.01,0,.03,0,.04-.01,.11-.03,.23-.04,.36,0,.02,0,.06,0,.08,0,.06,0,.11,0,.17,0,.04,0,.08,0,.11l.03,.17c0,.1,.02,.2,.03,.3l2.07,12.96c.35,2.2,2.44,3.73,4.65,3.4l29.98-4.5c2.22-.33,3.96-.11,5.14,.69,1.19,.79,1.89,1.93,2.13,3.49,.03,.18,.05,.35,.06,.53,.01,.09,0,.17,.01,.26,.02,.49-.01,.96-.11,1.4-.02,.06-.04,.12-.05,.19-.06,.24-.15,.48-.25,.71-.01,.02-.02,.05-.03,.07-.14,.31-.32,.6-.55,.88-.87,1.13-2.45,1.87-4.69,2.21l-29.98,4.5c-.52,.08-1,.25-1.42,.5-.02,0-.04,.02-.07,.04-.14,.08-.27,.18-.4,.28-.04,.03-.07,.06-.1,.09-.08,.07-.16,.14-.24,.21-.03,.03-.05,.05-.08,.08-.07,.07-.14,.15-.2,.23-.28,.34-.5,.72-.65,1.12,0,.02-.02,.04-.03,.06,0,0,0,.02,0,.03-.02,.06-.04,.13-.06,.19-.02,.06-.04,.13-.05,.19,0,0,0,.01,0,.03-.02,.06-.03,.13-.04,.2,0,.03-.01,.05-.02,.08,0,.03-.01,.05-.01,.07-.01,.12-.03,.23-.04,.36v.02s0,.05,0,.07c0,.06,0,.13,0,.19,0,.03,0,.06,0,.1v.04s.01,.04,.01,.06v.06c.02,.1,.03,.2,.04,.3l2.56,16.03c.35,2.2,2.44,3.73,4.65,3.4l34.07-5.11c.28-.04,.57-.08,.84-.1,1.89-.17,3.43,.12,4.54,.86,1.27,.85,2.03,2.1,2.3,3.8,.09,.61,.12,1.18,.05,1.71,0,.01,0,.03,0,.03-.01,.12-.04,.24-.06,.36,0,.04-.02,.08-.03,.12-.02,.08-.04,.18-.07,.26-.01,.05-.03,.09-.05,.13-.03,.08-.05,.16-.08,.24-.03,.06-.06,.14-.09,.21-.02,.05-.04,.1-.06,.15,0,0,0,0,0,.02l-.03,.06c-.04,.07-.08,.14-.12,.2-.04,.06-.08,.14-.12,.2,0,.02-.03,.03-.04,.06l-.02,.02c-.09,.14-.19,.28-.29,.41-.24,.3-.52,.57-.85,.81-.97,.74-2.33,1.24-4.05,1.5l-43.47,6.52c-3.24,.49-5.69,.14-7.27-1.03-1.58-1.17-2.65-3.39-3.16-6.59l-9.46-59.22c-.27-1.64-.31-3.05-.14-4.26h0Zm-18.19-1.33c1.1-1.65,2.65-2.6,4.76-2.92,2.22-.33,4,.09,5.59,1.34,.86,.67,1.56,1.63,2.1,2.85,.08,.17,.15,.35,.22,.54,.11,.29,.22,.61,.31,.93s.18,.66,.26,1.01,.14,.72,.21,1.1l9.92,62.07c.48,3,.17,5.36-.91,7.01,0,.01-.02,.03-.03,.05-1.13,1.68-2.68,2.61-4.9,2.94-2.09,.31-3.85-.15-5.43-1.42-1.57-1.27-2.62-3.43-3.1-6.43l-9.92-62.07c-.48-3-.16-5.35,.93-7.01h0s0,.01,0,.01Zm-67.54,17.62l-.03-.17c-.02-.15-.02-.3-.04-.45-.01-.11-.02-.23-.03-.33,0-.04,0-.09,0-.13,0-.19-.01-.36-.02-.54,0-.05,0-.1,0-.15,0-.03,0-.07,0-.1,0-.24,0-.47,.02-.7,.01-.22,.03-.44,.06-.66,.15-1.26,.53-2.3,1.13-3.12,.07-.09,.13-.18,.21-.27,.02-.02,.04-.05,.07-.07,.13-.14,.26-.28,.4-.41,.4-.38,.89-.72,1.44-1.01,.13-.07,.26-.14,.4-.2,.16-.07,.31-.14,.48-.21,1.01-.41,2.21-.72,3.58-.93l26.01-3.9c3.54-.53,6.63-.84,9.18-.91,2.45-.08,4.73,.18,6.9,.78,2.6,.66,4.93,1.78,7.03,3.34l.02,.02c2.11,1.58,3.86,3.54,5.19,5.84,1.34,2.32,2.24,4.88,2.68,7.64,.8,5.02,.19,9.37-1.81,12.96-.08,.15-.17,.3-.26,.45-.02,.03-.03,.06-.04,.08-.02,.03-.03,.05-.04,.08-.14,.23-.29,.45-.44,.68-.21,.31-.44,.61-.67,.91l-.02,.03c-.12,.14-.24,.29-.37,.43s-.24,.29-.37,.43c-.02,.02-.03,.03-.04,.05-.15,.16-.29,.32-.44,.48-.4,.41-.81,.81-1.25,1.18-.03,.03-.07,.06-.1,.09-.02,.01-.03,.03-.05,.04-.16,.15-.33,.28-.5,.43-1.02,.84-2.16,1.63-3.42,2.38-.21,.13-.42,.25-.63,.37-.46,.26-.85,.61-1.17,1.01,0,.02-.02,.03-.03,.04-.07,.09-.13,.18-.19,.28-.03,.05-.06,.1-.09,.15-.08,.13-.15,.26-.21,.41,0,0,0,.02,0,.03-.06,.13-.11,.27-.15,.4-.01,.05-.03,.1-.04,.14-.01,.03-.01,.05-.02,.08-.02,.08-.05,.17-.06,.26,0,.05-.02,.09-.03,.14-.02,.16-.03,.31-.05,.47-.01,.49,.08,.99,.24,1.45,.02,.06,.04,.12,.07,.18,.32,.76,.85,1.43,1.56,1.89,.72,.47,1.44,.98,2.16,1.53,.43,.33,.87,.67,1.29,1.03,.45,.38,.89,.76,1.34,1.15,2.49,2.2,4.83,4.57,6.99,7.09,1.58,1.86,2.97,3.62,4.16,5.29,.24,.33,.47,.66,.69,.99,.45,.65,.86,1.28,1.25,1.89,1.95,3.14,2.38,4.45,2.46,4.95,.14,.87,0,1.81-.43,2.78-.05,.1-.1,.21-.15,.3,.04-.08,.08-.16,.12-.24-.05,.1-.1,.2-.14,.3-.44,.83-1.07,1.55-1.89,2.14-.08,.06-.17,.11-.25,.17-.28,.19-.59,.35-.91,.5-.11,.05-.21,.09-.32,.14-.31,.12-.63,.23-.97,.32-.33,.08-.68,.16-1.04,.21-.58,.09-1.13,.12-1.66,.1-.83-.03-1.6-.19-2.3-.48-.1-.04-.19-.08-.29-.12-.21-.1-.42-.22-.63-.34-.79-.45-1.52-.99-2.21-1.63-.2-.18-.39-.38-.59-.58-.9-.95-2.05-2.27-3.51-4-.31-.36-.62-.73-.96-1.13l-8.1-9.67c-1.11-1.34-2.15-2.57-3.16-3.67-.43-.47-.85-.92-1.27-1.35-.18-.19-.36-.38-.54-.55-.24-.25-.48-.49-.72-.71-.71-.69-1.38-1.3-2.02-1.82-1.28-1.06-2.55-1.89-3.79-2.51,0,0,0,0-.02,0-.11-.05-.22-.11-.33-.16-.13-.06-.27-.11-.39-.17,.02,0,.05,.02,.07,.02-.11-.04-.22-.09-.33-.14-.05-.02-.1-.05-.16-.07-.09-.04-.19-.07-.28-.1,.03,.02,.06,.02,.1,.04-.11-.04-.23-.08-.34-.12-.09-.04-.19-.07-.29-.1-.05-.01-.09-.03-.13-.04-.05-.01-.09-.03-.14-.04-.17-.05-.35-.1-.52-.15-1.56-.38-3.38-.48-5.43-.33-.35,.03-.69,.06-1.04,.1-.36,.04-.72,.09-1.08,.14l-2.41,.36c-.16,.02-.32,.06-.47,.1-.05,0-.09,.02-.14,.05-.06,.02-.13,.04-.19,.06-.25,.09-.5,.21-.71,.35-1.38,.85-2.12,2.45-1.86,4.06l3.53,22.12c.37,2.33,.3,4.25-.23,5.75-.07,.19-.14,.37-.22,.55-.02,.05-.05,.11-.08,.16,0,0,0,.01,0,.02-.02,.04-.04,.08-.06,.12s-.04,.08-.06,.12c-.08,.13-.15,.26-.23,.38-.42,.62-.89,1.13-1.45,1.54-.55,.42-1.17,.74-1.87,.98-.47,.16-.98,.27-1.52,.36-.49,.07-.96,.11-1.41,.11-.18,0-.36,0-.53-.02-.56-.04-1.08-.13-1.58-.29,.33-.5,.6-1,.83-1.5,.06-.12,.11-.25,.16-.38,.02-.05,.04-.1,.05-.15l.02-.06s.01-.04,.02-.06c.03-.08,.05-.17,.08-.25,.02-.08,.06-.17,.08-.26,0,0,0-.01,.01-.03,0,0,0,0,0-.01,.04-.14,.08-.28,.1-.42,0-.02,.01-.03,.01-.05,0-.04,.02-.08,.03-.13,0,0,0-.03,0-.04,.03-.16,.06-.31,.08-.47v-.02c.02-.16,.03-.32,.04-.49,0-.02,0-.05,0-.08,0-.02,0-.03,0-.05,0-.17,0-.34,0-.51h0c0-.09-.01-.16-.01-.24,0-.1,0-.19-.02-.29l-.04-.24c-.02-.14-.03-.27-.05-.42-.06-.42-.18-.87-.32-1.35s-.34-1-.57-1.57c-.23-.56-.49-1.11-.76-1.65-.06-.12-.12-.26-.19-.38-.14-.28-.29-.57-.46-.86-.17-.32-.35-.63-.53-.95-.35-.61-.73-1.25-1.15-1.93-.08-.13-2.11-3.5-5.06-8.41l-7.19-45.01c-.04-.29-.09-.57-.12-.85h.04s.01-.02,.01-.02Zm-44.71,11.83c.03-.13,.08-.34,.13-.61,.02-.09,.04-.19,.06-.29,.02-.08,.03-.16,.05-.24,.04-.16,.07-.35,.12-.53s.08-.37,.12-.57c.24-1.08,.49-2.25,.64-2.91,.01-.06,.02-.1,.03-.16,0-.03,.01-.05,.01-.07,.02-.06,.03-.12,.04-.16,.02-.1,.05-.21,.07-.31,.05-.21,.09-.42,.14-.61,.01-.03,.02-.06,.03-.09,.02-.08,.04-.15,.06-.23,.06-.24,.12-.47,.18-.69,.02-.08,.05-.18,.07-.26,.03-.11,.07-.21,.09-.31,.04-.12,.07-.24,.11-.37,.03-.1,.06-.19,.1-.29,.04-.12,.08-.24,.12-.35,.03-.1,.07-.19,.1-.28,.04-.11,.08-.22,.12-.33,.04-.09,.07-.18,.11-.27,.04-.09,.07-.19,.11-.28,.1-.25,.2-.49,.32-.72,.32-.69,.72-1.33,1.2-1.92,.39-.49,.85-.95,1.34-1.38,.1-.09,.2-.17,.3-.25,.81-.64,1.8-1.13,2.96-1.49,.61-.19,1.27-.34,1.97-.44,1.17-.18,2.25-.21,3.24-.1,.33,.03,.65,.08,.95,.14,.41,.09,.8,.2,1.17,.34,1.49,.57,2.79,1.42,3.82,2.5,1.08,1.14,2.06,2.41,2.89,3.79,.48,.79,1.04,1.73,1.67,2.8,.51,.87,1.06,1.83,1.66,2.87,0,0,0,0,.43,.71,.02,.04,.04,.07,.06,.1,.13,.2,.28,.47,.47,.78,.3,.48,.67,1.11,1.16,1.93,.18,.3,.38,.63,.59,.98,.3,.51,.64,1.07,1.02,1.69,3.64,6.05,10.83,17.99,25.06,41.6,.76,1.24,1.4,2.36,1.93,3.37,.32,.61,.59,1.17,.82,1.69,.07,.15,.14,.3,.19,.45,.37,.89,.61,1.64,.7,2.25,.2,1.22,0,2.37-.58,3.53,0,.01-.02,.03-.02,.04-.09,.17-.19,.34-.3,.53-.02,.04-.05,.08-.08,.13-.11,.17-.23,.35-.36,.53-1.18,1.61-2.64,2.49-4.61,2.79-.87,.13-1.65,.13-2.35,0-.21-.04-.42-.09-.61-.15-.13-.04-.26-.1-.39-.15-.54-.22-1.05-.51-1.5-.87-.12-.1-.24-.19-.35-.29-.31-.28-.64-.66-1-1.11-.41-.52-.86-1.16-1.34-1.9-.01-.03-.03-.05-.06-.08-.05-.07-.09-.14-.13-.21-.81-1.26-1.53-2.4-2.13-3.37-.06-.1-.11-.19-.17-.28-.01-.03-.04-.07-.08-.14-.03-.06-.08-.14-.13-.23-.03-.06-.07-.12-.1-.19-.03-.06-.07-.12-.1-.18-.04-.08-.08-.16-.14-.24-.03-.06-.07-.12-.1-.17,0-.01-.01-.03-.03-.04l-3.59-6.24c-.21-.36-.47-.69-.77-.96-.07-.07-.15-.13-.23-.2-.11-.09-.24-.17-.37-.26-.82-.52-1.81-.75-2.79-.6l-27.67,4.15c-.83,.12-1.59,.51-2.18,1.06-.07,.07-.14,.14-.22,.22-.48,.52-.82,1.17-.96,1.89l-1.71,8.47c-.44,2.15-.87,3.94-1.29,5.38-.08,.26-.15,.51-.23,.75-.08,.25-.16,.48-.24,.7-.08,.22-.16,.44-.24,.63-.08,.17-.15,.34-.21,.49-.02,.03-.03,.06-.04,.09-.05,.1-.1,.2-.14,.29-.17,.33-.39,.62-.65,.88-.13,.13-.27,.25-.43,.37-.76,.58-1.81,.97-3.11,1.17-1.64,.25-3.1-.05-4.56-.92-.18-.11-.36-.22-.53-.34-.18-.13-.35-.26-.52-.39-.16-.13-.31-.26-.46-.4-.03-.03-.06-.06-.09-.09l-.17-.18c-.09-.09-.19-.19-.27-.29-.06-.07-.1-.14-.16-.21-.01-.02-.03-.04-.05-.06-.55-.74-.9-1.55-1.05-2.48-.16-.99-.16-2.05,0-3.17,.08-.53,.18-1.14,.33-1.84,0-.02,0-.05,.02-.06,.01-.05,.02-.1,.03-.16,0-.04,.01-.07,.02-.11,0-.04,.02-.08,.03-.13,.01-.08,.03-.16,.05-.24,.01-.03,.02-.06,.02-.1,.01-.06,.02-.12,.03-.18,.03-.13,.06-.26,.08-.39,.02-.1,.04-.19,.06-.29,.03-.14,.06-.28,.09-.42,.01-.05,.02-.08,.03-.13,.01-.06,.03-.11,.04-.17,.06-.25,.11-.51,.17-.78l12.02-54.19h0s.04,.01,.04,.01Zm-33.19,70.73c-1.49-.56-2.78-1.43-3.83-2.57-1.1-1.19-2.12-2.6-3.05-4.2-.95-1.62-1.93-3.38-2.9-5.21,0,0-4.39-7.86-13.17-23.58-6.75-12.08-13.62-24.37-13.83-24.75-.46-.86-.94-1.72-1.42-2.57-.46-.81-.89-1.7-1.28-2.67-.38-.95-.62-1.74-.72-2.4-.23-1.47,.06-2.81,.92-4.2,.11-.17,.22-.35,.35-.53,.28-.39,.58-.74,.91-1.05,.98-.93,2.2-1.48,3.74-1.71,2.43-.36,4.27,.1,5.46,1.38,1.33,1.43,2.88,3.86,4.6,7.24,.02,.02,21.66,41.26,21.87,41.67,.81,1.55,2.51,2.41,4.24,2.15,.14-.02,.28-.05,.41-.09h.04s.06-.02,.09-.03c.1-.02,.19-.06,.27-.1,.05-.02,.1-.03,.14-.05,.02,0,.05-.02,.07-.03,.1-.05,.21-.1,.31-.16,.02,0,.03-.02,.05-.03,.09-.04,.17-.09,.24-.15,.05-.04,.12-.07,.18-.12,.02-.01,.05-.04,.07-.06,.11-.09,.23-.18,.32-.28,.01-.01,.02-.02,.04-.04,.1-.1,.18-.2,.27-.3,.02-.02,.03-.04,.04-.06,0,0,0,0,.01-.01,.02-.02,.03-.04,.04-.06,.11-.15,.21-.31,.3-.47,.01-.02,.02-.03,.03-.05,.19-.35,.32-.74,.39-1.15,0-.02,0-.04,.01-.06l7.84-46.46c.48-2.9,.87-4.94,1.15-6.08,.23-.89,.68-1.76,1.34-2.59,.1-.12,.2-.24,.31-.37,.8-.89,2.05-1.47,3.72-1.72,1.21-.18,2.4-.05,3.53,.4,1.14,.45,2.09,1.15,2.85,2.05,.74,.91,1.2,1.87,1.37,2.87,.11,.72,.14,1.53,.08,2.41-.04,.54-.1,1.08-.18,1.62-.05,.36-.11,.73-.19,1.09-.16,.82-.32,1.67-.47,2.5-.02,.1-.03,.19-.05,.29,0,.02-.01,.06-.02,.11-.2,.99-1.63,8.13-3.4,16.94-.27,1.33-.54,2.69-.82,4.08-1.3,6.48-2.6,12.96-3.9,19.45-.99,4.92-1.62,8.1-2.04,10.15-.07,.34-.13,.64-.19,.92-.03,.16-.06,.3-.09,.44-.48,2.38-.48,2.4-.48,2.4-.36,2.02-.75,3.98-1.13,5.83-.36,1.68-.84,3.2-1.43,4.54-.04,.11-.09,.21-.14,.32-.11,.24-.23,.47-.36,.69-.06,.1-.11,.19-.17,.3-.1,.16-.2,.31-.31,.47-.54,.77-1.2,1.47-1.98,2.09-1.24,.98-2.87,1.64-4.88,1.94s-3.77,.16-5.25-.4h.04s0,0,0,0Zm81.12,64.51c-.15,.91-.35,1.81-.61,2.69-.15,.53-.33,1.06-.53,1.58-.08,.2-.15,.4-.24,.61-.08,.19-.15,.37-.24,.56-.08,.17-.15,.33-.23,.5-.05,.1-.1,.21-.15,.31-.19,.38-.39,.76-.61,1.12l-.14,.25c-.05,.09-.11,.17-.16,.26-.08,.13-.17,.27-.25,.4,0,0-.01,.02-.02,.03-.05,.08-.11,.15-.16,.23-.05,.07-.1,.15-.15,.22-.03,.04-.06,.08-.09,.12-.03,.03-.05,.07-.07,.11-.16,.22-.32,.44-.48,.66h0c-.12,.17-.25,.33-.38,.49,0,0,0,0-.01,.01-.05,.06-.09,.12-.14,.17-.09,.12-.19,.23-.28,.33-.09,.1-.18,.21-.27,.31-.1,.12-.21,.24-.32,.35-.03,.03-.05,.06-.09,.09-.06,.07-.11,.13-.18,.19-.07,.07-.13,.14-.2,.19-.07,.07-.15,.15-.22,.22-.02,.02-.04,.04-.07,.07-.04,.04-.08,.09-.13,.13-.02,.01-.03,.03-.04,.05-.48,.46-.99,.92-1.52,1.36-.14,.12-.29,.24-.45,.37l-.07,.06s-.03,.03-.05,.04c-.01,0-.03,.02-.04,.03-.67,.53-1.37,1.02-2.11,1.51-4.27,2.78-9.67,4.67-16.02,5.63-7.61,1.14-14.19,.65-19.55-1.46-3.79-1.52-7.08-3.85-9.8-6.92-2.69-3.06-4.31-6.21-4.82-9.37-.24-1.49-.02-2.78,.67-4.02,.12-.22,.26-.44,.41-.66,.99-1.38,2.43-2.23,4.27-2.51,1.51-.23,2.76,.04,3.95,.84,.93,.63,1.81,1.53,2.66,2.75,.28,.41,.56,.85,.84,1.33,1.43,2.39,2.9,4.39,4.38,5.94,1.52,1.6,3.51,2.82,5.93,3.64,2.41,.81,5.44,.95,9,.42,4.89-.73,8.76-2.51,11.49-5.27,0,0,.01,0,.02-.02,.13-.13,.25-.27,.38-.4,.03-.03,.05-.06,.08-.09,.02-.02,.04-.05,.07-.07,.03-.03,.05-.06,.08-.09,.1-.12,.2-.23,.29-.34,.02-.02,.04-.04,.05-.06,.03-.04,.07-.09,.1-.13l.25-.33,.14-.19c.08-.11,.16-.23,.24-.35,.03-.05,.06-.09,.1-.14l.03-.03s.05-.08,.08-.13c.07-.11,.13-.22,.2-.32,.02-.03,.04-.06,.05-.08,.06-.12,.13-.23,.19-.36,.03-.06,.06-.12,.1-.18,0-.01,.02-.03,.02-.04,.02-.04,.04-.08,.06-.12,.01-.01,.02-.03,.02-.05,.05-.1,.1-.21,.15-.32,.06-.13,.1-.25,.15-.38,.65-1.68,.82-3.47,.51-5.39-.45-2.82-1.7-5.02-3.74-6.54-1.95-1.46-4.36-2.46-7.14-2.96-2.68-.48-6.27-.9-10.67-1.23-5.8-.47-10.79-1.3-14.82-2.48-3.95-1.16-7.29-3.07-9.9-5.68-2.6-2.58-4.26-6.11-4.96-10.46-.66-4.15-.11-8.05,1.63-11.6,1.42-2.9,3.63-5.43,6.58-7.56,.68-.49,1.4-.96,2.15-1.41,.51-.31,1.04-.59,1.58-.87,.27-.14,.55-.28,.83-.41,3.62-1.74,7.88-2.98,12.7-3.7s8.98-.74,12.59-.09c3.61,.64,6.74,1.78,9.28,3.35,2.54,1.58,4.52,3.34,5.87,5.26,1.35,1.91,2.19,3.87,2.5,5.81,.03,.18,.05,.36,.07,.53,.01,.07,0,.14,.01,.2l.02,.32c0,.09,0,.18-.01,.27,0,.08,0,.16,0,.25,0,.1-.02,.19-.03,.28l-.03,.23c-.02,.1-.04,.2-.06,.29-.01,.07-.02,.14-.04,.22-.03,.1-.06,.2-.09,.3-.02,.06-.04,.13-.06,.2-.04,.1-.07,.2-.11,.3-.03,.06-.05,.13-.08,.2-.04,.1-.08,.19-.13,.28-.04,.07-.06,.14-.1,.21-.02,.03-.03,.06-.04,.09-.02,.03-.04,.07-.05,.1-.02,.05-.06,.1-.08,.14-.08,.13-.15,.27-.24,.4,0,.01,0,.02-.02,.03-.22,.35-.48,.69-.77,.99,0,.01-.02,.03-.03,.04-.04,.05-.09,.08-.13,.12-.04,.05-.09,.08-.14,.13-.02,.02-.05,.04-.07,.06-.04,.04-.08,.07-.12,.11-.08,.06-.16,.12-.25,.18-.08,.06-.16,.13-.25,.18-.1,.07-.21,.12-.31,.17-.07,.04-.14,.09-.22,.13-.27,.14-.56,.24-.86,.33h-.03c-.1,.03-.19,.06-.29,.09-.1,.03-.22,.04-.32,.06-.11,.02-.21,.05-.33,.07-1.61,.24-2.88,.04-3.79-.6-1.02-.72-2.23-2-3.61-3.83-1.98-2.84-4.18-5-6.53-6.41-2.44-1.46-6.02-1.85-10.64-1.16-4.29,.64-7.65,2.14-10.01,4.43-1.37,1.33-2.28,2.75-2.74,4.23-.02,.03-.02,.07-.03,.11-.02,.07-.04,.15-.06,.22-.01,.03-.01,.05-.02,.07-.02,.08-.04,.15-.05,.23-.01,.08-.03,.15-.05,.23-.01,.06-.02,.13-.03,.19,0,.04-.01,.08-.02,.12,0,0,0,0,0,.02,0,.07-.02,.13-.02,.21l-.03,.31c0,.08,0,.15-.02,.23,0,.11,0,.21,0,.33,0,.08,0,.14,0,.21,0,.11,0,.21,.02,.33v.04c.02,.06,.01,.12,.02,.18,.02,.18,.04,.37,.07,.55,.29,1.77,1,3.2,2.18,4.35,1.13,1.09,2.58,1.97,4.32,2.61,1.69,.62,3.39,1.05,5.06,1.29,1.62,.23,4.3,.53,7.97,.89,0,0,.02,0,.03,0,.58,.04,1.16,.1,1.73,.15,3.96,.37,7.57,.86,10.85,1.47,3.72,.7,6.99,1.74,9.72,3.11,2.68,1.35,4.94,3.25,6.71,5.66,1.77,2.41,2.97,5.58,3.58,9.4,.41,2.58,.43,5.08,.03,7.49h.03s0,0,0,0Zm23.38-50.71l8.64,54.04c.41,2.6,.26,4.71-.46,6.28-.05,.1-.1,.21-.15,.3-.02,.04-.04,.08-.06,.12-.08,.13-.15,.26-.23,.39-1.08,1.61-2.69,2.58-4.78,2.9s-3.99-.14-5.54-1.38c-1.57-1.25-2.62-3.42-3.1-6.45l-8.64-54.04c-.35-2.2-2.44-3.73-4.65-3.4l-13.31,2c-.29-.5-.61-1-.96-1.5-1.56-2.2-3.78-4.21-6.62-5.97-.34-.21-.7-.41-1.06-.61,.08-.16,.18-.32,.29-.48,.1-.15,.22-.31,.35-.45,1.06-1.23,2.81-2.03,5.22-2.39l50.84-7.63c2.54-.38,4.52-.12,5.88,.78,1.35,.89,2.14,2.17,2.42,3.92,.28,1.74-.08,3.19-1.11,4.42-1.03,1.24-2.84,2.06-5.35,2.44l-14.25,2.14c-2.21,.33-3.72,2.4-3.37,4.6h0s0-.02,0-.02Zm92.39,26.36c-.05,.35-.12,.7-.18,1.04,0,0,0,.03,0,.04-.02,.11-.04,.22-.07,.34-.03,.15-.06,.31-.09,.46-.02,.09-.04,.19-.06,.28-.03,.13-.06,.25-.08,.37-.05,.24-.11,.47-.17,.7,0,0,0,0,0,.02-.03,.11-.06,.22-.08,.34-.08,.32-.17,.64-.27,.96,0,.03-.01,.05-.02,.07-.1,.34-.21,.68-.31,1.01-.03,.11-.07,.21-.1,.32-.03,.09-.06,.18-.09,.27-.05,.14-.09,.29-.15,.43-.04,.12-.09,.24-.13,.35,0,.03-.02,.05-.02,.07-.08,.2-.15,.4-.23,.6-.04,.11-.08,.22-.13,.32-.05,.12-.1,.24-.15,.36-.07,.16-.13,.33-.21,.49-.02,.03-.03,.06-.04,.11-.17,.38-.34,.74-.51,1.1-.04,.09-.09,.19-.14,.27-.17,.36-.35,.71-.54,1.05,0,.01-.02,.03-.02,.03-.19,.36-.4,.71-.6,1.06l-.15,.26c-.05,.08-.1,.16-.15,.24-.16,.26-.33,.53-.49,.79-.25,.39-.53,.78-.8,1.15-.04,.06-.09,.12-.13,.18-.11,.15-.25,.32-.36,.47-.15,.2-.3,.4-.45,.6-.06,.07-.12,.15-.17,.21-.07,.09-.15,.18-.22,.27-.19,.23-.39,.46-.59,.68,0,0-.01,0-.02,.02-.28,.31-.56,.61-.85,.91-.07,.07-.13,.14-.2,.2-.23,.23-.46,.46-.7,.69-.26,.25-.53,.5-.8,.74-.12,.1-.25,.22-.38,.32-.07,.06-.13,.12-.2,.17-.13,.11-.27,.22-.4,.33-1.35,1.11-2.79,2.11-4.29,3-1.75,1.04-3.59,1.93-5.49,2.66-.16,.06-.31,.12-.46,.18-.06,.02-.12,.05-.19,.07-.31,.12-.63,.23-.95,.34-.02,0-.05,.02-.07,.02-.2,.07-.42,.13-.62,.2-.14,.05-.27,.09-.42,.13-.11,.04-.22,.06-.33,.1-.24,.07-.48,.14-.73,.21-.04,0-.08,.02-.12,.03-.1,.02-.19,.05-.29,.08l-.68,.18c-.15,.03-.3,.08-.44,.11-.11,.03-.22,.05-.34,.08l-.34,.08c-.15,.04-.3,.07-.45,.1-.24,.06-.47,.1-.71,.15-.15,.03-.29,.06-.44,.09-.17,.03-.34,.06-.5,.1-.09,.01-.19,.03-.28,.06-.13,.02-.26,.04-.39,.07-.4,.06-.8,.13-1.2,.19-.3,.04-.59,.08-.89,.12-.27,.04-.54,.08-.8,.11-.1,.02-.2,.03-.31,.03-.53,.06-1.07,.11-1.6,.16-.1,0-.2,.02-.31,.02-.12,.01-.23,.01-.35,.02-.43,.03-.86,.06-1.28,.08h0c-.53,.02-1.07,.04-1.61,.04-.1,0-.2,0-.3,0-.51,0-1.02,0-1.53-.02-.1,0-.19-.01-.29-.01-.51-.02-1.03-.05-1.54-.08h-.02c-.26-.01-.5-.05-.75-.08-.26-.02-.51-.05-.76-.07-.1-.01-.19-.02-.28-.03-.03,0-.06-.01-.1-.01-.14-.02-.29-.04-.43-.06-.31-.05-.61-.09-.91-.14-.11-.01-.21-.04-.32-.05-.04,0-.09-.01-.13-.03-.76-.14-1.51-.29-2.25-.46-5.06-1.22-9.51-3.38-13.24-6.41-3.74-3.04-6.86-6.97-9.27-11.68-.17-.33-.33-.66-.49-.99-.06-.11-.1-.22-.16-.33-.11-.23-.22-.46-.32-.69-.05-.1-.09-.2-.13-.31-.11-.24-.21-.47-.31-.71-1.69-3.95-2.92-8.26-3.65-12.86-.95-5.94-.97-11.58-.05-16.77,.32-1.86,.78-3.7,1.37-5.49,.19-.57,.39-1.13,.61-1.69,.18-.46,.36-.92,.56-1.37,1.56-.35,2.88-.88,3.96-1.6,.02,0,.04-.03,.05-.03,.44-.29,.83-.61,1.18-.96,.15-.16,.3-.31,.44-.47,.11-.13,.21-.26,.31-.4,.03-.05,.06-.08,.09-.12,.07-.1,.14-.19,.2-.3,.03-.05,.06-.09,.09-.14,.07-.11,.12-.22,.19-.32,.01-.01,.02-.03,.02-.04,0-.02,.02-.04,.04-.06,.07-.14,.15-.29,.21-.43,0-.01,.02-.03,.02-.05,0-.02,.02-.03,.02-.04,.06-.13,.11-.26,.16-.39,.02-.05,.04-.09,.05-.14,.04-.13,.08-.26,.12-.38,0-.03,.02-.06,.03-.11,.05-.16,.08-.33,.11-.49,0-.04,.01-.08,.02-.12,.03-.13,.04-.27,.06-.4,0-.05,.01-.1,.02-.14h0c.01-.16,.03-.3,.03-.46,0-.02,0-.05,0-.08,0-.17,0-.35,0-.53,0-.05,0-.1,0-.15,0-.14-.02-.28-.02-.41,0-.05-.01-.11-.01-.16-.02-.18-.05-.37-.07-.56-.04-.25-.09-.51-.15-.75,1.83-1.75,3.91-3.3,6.21-4.64,1.76-1.03,3.66-1.92,5.69-2.68,2.97-1.11,6.22-1.94,9.72-2.46,5.68-.85,10.97-.8,15.79,.16,1.97,.39,3.86,.92,5.67,1.61,.67,.26,1.33,.54,1.98,.83,3.52,1.6,6.65,3.75,9.37,6.44,1.4,1.38,2.68,2.9,3.86,4.57,1.19,1.68,2.24,3.52,3.18,5.53,1.41,3.04,2.55,6.47,3.42,10.35,.34,1.48,.63,3.04,.89,4.67l.17,1.12c.79,5.56,.79,10.8,0,15.6v-.03s-.03,0-.03,0Zm67.04,10.31c-.02,.06-.03,.13-.05,.19-.01,.04-.03,.08-.04,.13,0,0-.01,.02-.02,.03-.02,.06-.04,.13-.07,.2-.02,.05-.04,.1-.06,.16-.03,.08-.05,.14-.09,.22-.42,.94-1.08,1.74-1.95,2.41-.04,.03-.08,.06-.12,.09-.94,.68-2.12,1.13-3.49,1.34-.18,.03-.36,.05-.53,.06-.05,0-.1,.01-.16,.01-.13,.01-.25,.02-.38,.02-.05,0-.1,0-.15,0-.05,0-.11,0-.16,0-.11,0-.23,0-.35,0-.05,0-.1-.01-.14,0-.13,0-.25-.02-.38-.03-.17-.02-.33-.05-.49-.08-.02,0-.04,0-.06-.01-.08-.02-.17-.05-.26-.06-.08-.02-.16-.04-.24-.06-.1-.03-.19-.07-.29-.09,.02,0,.05,.01,.06,.02-.09-.03-.17-.06-.26-.09-.06-.02-.11-.05-.18-.07-.09-.04-.19-.08-.28-.13-1.26-.61-2.41-1.47-3.42-2.55-1.08-1.15-2.54-2.83-4.46-5.13l-8.1-9.67c-2.81-3.42-5.29-6.05-7.39-7.84-.09-.07-.17-.15-.26-.22-.01-.02-.03-.03-.05-.04-.15-.12-.3-.24-.45-.36-.26-.21-.52-.4-.78-.59-.11-.08-.22-.16-.33-.23-.03-.03-.07-.05-.11-.07-.06-.04-.12-.08-.19-.12,0,0-.01,0-.02-.02-.16-.1-.31-.2-.46-.3-.09-.06-.18-.11-.27-.16-.23-.14-.48-.28-.72-.41-.13-.07-.26-.13-.39-.2,0,0,.02,0,.03,.02-.15-.08-.3-.16-.46-.23-.12-.06-.24-.1-.36-.15,.02,0,.04,.01,.05,.02-.11-.05-.23-.1-.35-.15-.05-.02-.1-.05-.16-.06-.12-.05-.25-.09-.37-.13,.04,.01,.09,.03,.13,.04-.18-.07-.36-.14-.54-.19,0,0-.01,0-.02,0-.12-.04-.24-.07-.35-.1,.04,.01,.08,.02,.11,.03-.19-.05-.37-.11-.55-.15-.18-.04-.37-.08-.55-.12-1.97-.38-4.32-.37-7,.03l-2.41,.36c-1.02,.15-1.88,.67-2.49,1.4-.01,0-.02,.02-.02,.03-.04,.04-.06,.07-.09,.11-.18,.24-.34,.49-.46,.78-.02,.05-.04,.11-.07,.17-.02,.05-.04,.09-.06,.14,0,0-.01,.03-.02,.03-.04,.1-.07,.2-.09,.3,0,.03-.02,.06-.02,.1-.03,.09-.04,.18-.06,.27,0,.03-.01,.05-.01,.08-.01,.12-.03,.23-.04,.35,0,.03,0,.06,0,.09,0,.1,0,.18,0,.28,0,.03,0,.07,0,.11,0,.12,.02,.24,.04,.36s3.53,22.12,3.53,22.12c.42,2.63,.27,4.74-.45,6.3-.02,.03-.04,.07-.06,.1-.04,.07-.07,.14-.1,.2-.02,.04-.04,.08-.06,.12,0,0-.04,.06-.05,.08-.02,.02-.02,.04-.04,.06-.04,.08-.09,.15-.14,.23-.88,1.29-2.02,2.12-3.53,2.59-.41,.12-.84,.23-1.3,.3-2.29,.34-4.19-.12-5.65-1.39-.17-.15-.33-.31-.48-.47-.05-.05-.1-.1-.14-.16-.12-.13-.22-.27-.32-.41-.04-.06-.09-.11-.13-.17-.14-.19-.27-.4-.4-.62-.23-.4-.43-.83-.62-1.3-.14-.36-.28-.74-.4-1.14-.02-.08-.05-.18-.07-.26-.06-.22-.12-.44-.17-.66-.02-.09-.04-.19-.06-.28-.07-.31-.12-.62-.18-.94v-.02s-1.35-8.76-1.35-8.76c.12-.38,.24-.78,.34-1.17,.1-.39,.21-.78,.31-1.19,.25-1.04,.48-2.11,.66-3.2,.83-5.05,.83-10.54,0-16.35l-.18-1.17c-.09-.57-.19-1.12-.28-1.67-.02-.14-.05-.29-.08-.43v.04s-.01-.12-.01-.12c-.07-.37-.14-.74-.21-1.1-.04-.21-.09-.41-.13-.62-.07-.32-.13-.64-.2-.95,0-.05-.02-.1-.03-.16-.04-.17-.08-.33-.12-.49l-.21-.88c-.05-.22-.12-.44-.17-.66,0-.04-.02-.09-.03-.13-.03-.1-.06-.2-.08-.3-.03-.13-.07-.26-.1-.4-.06-.22-.13-.43-.18-.65,0-.02,0-.04-.02-.07-.07-.24-.13-.49-.21-.72-.06-.22-.14-.43-.2-.65-.08-.25-.16-.51-.24-.75-.07-.21-.14-.42-.22-.63-.09-.27-.18-.53-.28-.79v-.02c-.11-.3-.23-.6-.34-.89-.06-.15-.12-.3-.17-.45-.16-.39-.32-.79-.49-1.18,0-.03-.02-.06-.04-.09-.18-.41-.36-.82-.56-1.22-.06-.13-.13-.25-.18-.38-.13-.27-.26-.55-.4-.81-.08-.15-.16-.3-.24-.45-.12-.24-.25-.47-.38-.7-.08-.16-.18-.31-.27-.47-.12-.22-.24-.43-.37-.64-.1-.16-.2-.32-.3-.47-.13-.19-.25-.4-.37-.6-.11-.16-.21-.32-.32-.47-.1-.16-.21-.32-.32-.47-.04-.07-.08-.13-.13-.18l-1.21-7.23c-.04-.29-.09-.57-.12-.85l-.03-.17c-.03-.27-.05-.53-.07-.78,0-.04,0-.09,0-.13,0-.17-.01-.33-.02-.49,0-.06,0-.13,0-.2,0-.03,0-.07,0-.1,0-.08,0-.16,.01-.24,0-.15,0-.31,.01-.46,0-.05,0-.1,0-.15,.02-.21,.04-.42,.06-.62,0,0,0-.02,0-.04,0-.02,0-.04,.01-.06,.03-.2,.07-.4,.11-.58,0-.04,.01-.08,.03-.12,.05-.2,.09-.38,.15-.57,.01-.04,.02-.07,.03-.11,.03-.09,.06-.17,.09-.26,.03-.09,.06-.17,.09-.25,.17-.38,.36-.72,.58-1.03,.58-.79,1.42-1.45,2.53-1.97,1.1-.52,2.46-.9,4.06-1.14l26.01-3.9c3.54-.53,6.63-.84,9.18-.91,2.17-.07,4.22,.13,6.16,.59,.25,.06,.5,.12,.74,.19,2.61,.66,4.95,1.78,7.05,3.35,1.22,.91,2.31,1.95,3.28,3.11,.71,.85,1.35,1.76,1.91,2.73,1.14,1.98,1.97,4.16,2.46,6.47,.08,.39,.16,.77,.22,1.17,.05,.35,.11,.7,.15,1.05,0,.04,.01,.08,.01,.13,.03,.21,.04,.43,.06,.65,0,.1,.02,.19,.02,.28,.02,.24,.03,.48,.04,.72v.04c.02,.35,.03,.71,.02,1.06,0,.32-.02,.64-.03,.95v.13c-.02,.21-.04,.42-.07,.64,0,.05-.01,.1-.01,.15,0,.02,0,.05,0,.07-.03,.28-.07,.55-.11,.83,0,.05-.02,.09-.02,.14v.02c-.03,.23-.08,.45-.12,.67-.02,.08-.03,.18-.06,.26-.04,.19-.09,.39-.14,.58-.02,.08-.04,.16-.06,.24-.07,.26-.14,.53-.22,.8-.54,1.74-1.34,3.39-2.37,4.89-1.76,2.57-4.41,4.86-7.85,6.81-.3,.17-.58,.39-.83,.63-.12,.12-.24,.25-.34,.38-.54,.68-.84,1.52-.86,2.39-.01,.65,.13,1.29,.42,1.86,.33,.67,.83,1.24,1.45,1.65,.28,.18,.56,.36,.83,.56,.3,.21,.61,.42,.91,.65,.58,.43,1.15,.88,1.72,1.35,3,2.51,5.8,5.28,8.32,8.24,2.52,2.97,4.57,5.71,6.1,8.17,1.25,2.01,1.87,3.26,2.18,4.04,.17,.44,.25,.73,.28,.91,.09,.6,.05,1.22-.12,1.86h-.02s.05,.03,.05,.03Zm44.81-74.71c-.06,.12-.12,.23-.18,.35-.03,.05-.06,.11-.1,.17,0,0-.01,.01-.02,.02-.1,.15-.21,.31-.32,.45-.03,.03-.07,.07-.09,.1-.94,1.09-2.55,1.81-4.8,2.15l-32.84,4.92c-1.2,.18-2.19,.87-2.8,1.83-.1,.15-.19,.32-.26,.49-.05,.1-.09,.2-.13,.3,0,0,0,.02-.02,.03-.04,.1-.07,.2-.1,.3,0,.03-.02,.06-.02,.1-.03,.1-.04,.18-.06,.27,0,.03-.01,.05-.01,.08-.01,.06-.01,.12-.02,.18l-.02,.18s0,.06,0,.09c0,.1,0,.18,0,.28,0,.03,0,.07,0,.11,0,.05,.02,.11,.02,.17,0,.06,.01,.13,.02,.18l2.07,12.96c.35,2.2,2.44,3.73,4.65,3.4l29.98-4.5c2.22-.33,3.96-.11,5.15,.69,.83,.55,1.45,1.36,1.8,3.54,.03,.17,.05,.35,.06,.52,0,.04,0,.09,.01,.14,0,.14,.02,.27,0,.4v.03s0,.05,0,.08c0,.16-.01,.32-.03,.47,0,.03-.01,.06-.02,.1-.02,.13-.04,.25-.07,.37,0,.04-.02,.08-.03,.13-.03,.14-.07,.28-.12,.42h0c-.05,.15-.11,.29-.16,.42,0,0-.02,.05-.03,.07-.14,.31-.32,.6-.55,.88-.87,1.13-2.45,1.87-4.69,2.21l-29.98,4.5c-1.38,.21-2.49,1.09-3.04,2.27,0,.01-.02,.03-.02,.05-.05,.1-.09,.2-.13,.3,0,0,0,.02,0,.03-.04,.1-.07,.2-.1,.3-.01,.03-.02,.06-.03,.1-.03,.09-.04,.18-.06,.27,0,.03-.01,.05-.01,.08-.01,.06-.01,.13-.02,.2,0,.05,0,.1-.02,.16,0,.02,0,.06,0,.08,0,.1,0,.19,0,.28,0,.04,0,.07,0,.11,0,.12,.02,.25,.04,.37l2.56,16.03c.35,2.2,2.44,3.73,4.65,3.4l34.07-5.11c2.29-.34,4.11-.09,5.38,.76,1.27,.84,2.03,2.09,2.3,3.8,.03,.18,.05,.36,.06,.53v.02s.01,.07,.02,.12c.01,.15,.01,.3,.01,.44,0,.02,0,.06,0,.08,0,.16-.02,.33-.04,.49,0,.04-.01,.08-.02,.12-.02,.13-.04,.26-.07,.39,0,0,0,.03,0,.03,0,.03-.01,.05-.01,.07-.04,.15-.08,.3-.13,.45,0,0,0,0,0,.02,0,.03-.02,.05-.02,.07-.05,.13-.1,.25-.17,.38-.01,.02-.02,.04-.03,.06,0,0,0,.02,0,.02-.07,.14-.15,.28-.24,.41-.02,.03-.04,.06-.05,.08-.09,.14-.19,.27-.29,.41-.24,.3-.52,.57-.85,.81-.97,.74-2.33,1.24-4.05,1.5l-43.47,6.52c-2.02,.3-3.73,.28-5.11-.06,.05-.15,.1-.29,.14-.43,0,0,0,0,0-.02,.32-1.05,.39-2.1,.23-3.12-.2-1.24-1.12-3.17-2.82-5.89-1.1-1.76-2.45-3.66-4.04-5.68l-4.18-27.19c1.84-3.93,2.41-8.41,1.65-13.16-.49-3.05-1.5-5.92-2.99-8.5-.73-1.27-1.58-2.45-2.54-3.53-.18-1.38-.19-2.59-.03-3.65,.01-.09,.03-.18,.04-.26,.04-.23,.09-.47,.15-.68,.01-.04,.02-.08,.03-.13,.05-.16,.1-.31,.15-.47,.02-.05,.04-.1,.05-.14,.04-.09,.07-.18,.11-.27,.02-.03,.03-.08,.04-.11,.44-.91,1.08-1.63,1.99-2.22,1.26-.82,2.92-1.38,5.09-1.71l42.22-6.33c2.32-.35,4.14-.11,5.37,.71,1.23,.82,1.95,1.99,2.21,3.6,.19,1.18,.07,2.22-.35,3.13h.03Zm24.39-95.16c-.45,1.48-1.28,3.51-2.54,6.24l-14.54,32.34c-.32,.72-.43,1.51-.3,2.29l3.63,22.7c.41,2.53,.24,4.61-.48,6.18-.06,.12-.12,.24-.17,.36-.02,.04-.04,.08-.06,.12-.08,.14-.16,.28-.25,.4-1.11,1.63-2.74,2.63-4.82,2.94s-3.98-.14-5.51-1.36c-1.55-1.23-2.58-3.42-3.07-6.49l-3.63-22.71c-.12-.77-.47-1.49-.99-2.07l-23.43-26.25c-.46-.53-.89-1.03-1.29-1.5,2.38-.57,4.2-1.58,5.39-3.01,1.49-1.79,2.05-3.95,1.66-6.42-.18-1.13-.53-2.15-1.05-3.04-.31-.54-.68-1.02-1.11-1.47,.11,.06,.21,.13,.31,.19,.11,.07,.2,.14,.3,.22,1.28,1.03,3.35,3.21,6.16,6.52l15.17,17.71c.93,1.08,2.31,1.6,3.72,1.39s2.55-1.11,3.1-2.4l9.07-21.38c.67-1.6,1.22-2.95,1.67-4.04,.43-1.05,.94-2.06,1.51-3.01,.54-.89,1.18-1.61,1.91-2.15,.71-.52,1.66-.87,2.82-1.04,1.83-.27,3.34,.06,4.74,1.06,1.38,.98,2.16,2.19,2.41,3.7,.2,1.27,.09,2.6-.33,3.98h-.01Zm-151.67,141.44c-.19-.9-.4-1.76-.62-2.58-.95-3.56-2.17-6.45-3.72-8.87-1.16-1.8-2.44-3.37-3.84-4.7-.79-.75-1.63-1.44-2.53-2.05-1.37-.94-2.84-1.72-4.4-2.3-.09-.04-.18-.07-.27-.1-.03-.02-.08-.03-.11-.04-3.63-1.32-7.46-1.66-11.66-1.03-.79,.12-1.56,.28-2.32,.47h-.02c-.06,.01-.13,.03-.19,.05-.13,.03-.27,.08-.41,.11l-.49,.13c-.07,.03-.15,.04-.21,.06-.17,.05-.35,.11-.52,.17-.16,.05-.32,.1-.48,.16-.03,.01-.07,.03-.11,.04-.04,.01-.08,.03-.12,.04-.27,.1-.53,.21-.79,.32,0,0-.02,0-.02,0-.07,.03-.14,.06-.21,.09-.31,.13-.63,.28-.94,.43-.05,.03-.1,.05-.15,.07-.26,.14-.53,.27-.78,.42h0c-.07,.04-.16,.09-.23,.13-.64,.36-1.25,.76-1.84,1.19-.12,.09-.25,.19-.36,.28-.19,.14-.37,.28-.55,.42-.09,.07-.18,.15-.26,.22-.03,.03-.07,.06-.11,.09-.18,.15-.34,.29-.51,.44-.11,.1-.21,.2-.31,.3-.02,.01-.04,.04-.05,.05-.02,.02-.03,.03-.04,.04-.14,.14-.28,.27-.42,.4h0c-.05,.06-.1,.11-.15,.16-1.01,1.05-1.91,2.21-2.69,3.48-.2,.34-.41,.68-.59,1.03,0,.02-.02,.04-.03,.06-.16,.31-.32,.62-.47,.94-.02,.03-.03,.06-.04,.09-.02,.03-.03,.06-.04,.1-.15,.31-.28,.63-.41,.96,0,0,0,.01-.01,.02,0,.03-.02,.05-.03,.08-.14,.35-.27,.7-.39,1.06,0,0,0,.02,0,.03-.03,.09-.06,.18-.09,.27-.04,.13-.08,.26-.12,.38-.05,.17-.11,.33-.16,.5-.02,.09-.05,.18-.08,.27-.11,.38-.21,.76-.3,1.15-.02,.08-.04,.17-.06,.25-.07,.27-.12,.56-.18,.84-.01,.05-.03,.1-.03,.14-.01,.05-.02,.1-.03,.14-.02,.06-.03,.13-.04,.2-.02,.11-.04,.21-.05,.32-.05,.31-.11,.62-.16,.94-.57,3.8-.49,8.02,.23,12.51,.69,4.28,1.84,8.14,3.42,11.51,.09,.21,.19,.41,.29,.62,1.75,3.53,3.92,6.41,6.43,8.55,1.08,.92,2.23,1.73,3.46,2.44,1.2,.69,2.45,1.24,3.72,1.67,.37,.12,.73,.23,1.1,.34,2.96,.81,6.13,.97,9.43,.47,3.78-.57,7-1.92,10.05-4.25,.21-.16,.43-.33,.64-.5,.05-.05,.11-.09,.17-.13,.08-.07,.16-.14,.24-.21,3.09-2.63,5.34-6.29,6.7-10.88,.61-2.04,.97-4.25,1.12-6.63,.1-1.7,.09-3.47-.03-5.33-.03-.38-.06-.76-.09-1.14v-.07c-.04-.35-.08-.7-.12-1.06-.04-.38-.1-.77-.15-1.16l-.18-1.18c-.06-.41-.13-.81-.2-1.21-.14-.79-.29-1.55-.44-2.29v.03s0,0,0,0Zm-83.6-82.24c.74,.38,1.59,.55,2.47,.42l11.13-1.67c1.07-.16,2.1-.34,3.07-.54,.32-.07,.64-.13,.96-.21,1.4-.31,2.68-.67,3.84-1.06,.65-.22,1.27-.45,1.86-.7,.43-.18,.83-.38,1.23-.58,1.74-.9,3.12-2,4.12-3.31,.17-.23,.34-.47,.49-.71,.25-.4,.46-.83,.63-1.27,.01-.04,.03-.08,.05-.11,.02-.06,.05-.11,.07-.18,0,0,0-.02,0-.03,0-.01,.01-.03,.01-.04,.09-.26,.17-.51,.24-.78,.05-.2,.08-.4,.12-.6,.01-.08,.04-.16,.05-.26,.01-.09,.02-.19,.03-.28,.02-.18,.04-.36,.06-.54,0-.02,0-.05,0-.08,0-.04,0-.08,0-.11,0-.08,0-.15,.01-.23,0-.13,0-.27,.01-.4,0-.07,0-.13,0-.2,0-.12,0-.23,0-.35,0-.22-.02-.44-.04-.67-.01-.08,0-.15-.01-.23-.03-.36-.08-.73-.14-1.1-.04-.29-.1-.58-.17-.86,0-.04-.02-.08-.03-.12-.06-.24-.12-.48-.19-.71-.01-.05-.03-.1-.05-.14-.07-.22-.14-.44-.23-.66-.02-.04-.04-.09-.06-.13,0-.02-.02-.05-.03-.07-.15-.36-.31-.71-.49-1.05-.04-.08-.08-.17-.12-.25-.04-.07-.07-.12-.11-.18-.01-.03-.03-.05-.05-.07,0,0,0-.02-.01-.03-.08-.14-.16-.28-.25-.42-.03-.05-.07-.1-.1-.14-.04-.05-.07-.1-.11-.16-.08-.12-.16-.23-.25-.34,0,0-.01-.02-.01-.03-.03-.05-.07-.09-.11-.13-.05-.06-.1-.12-.15-.18-.09-.11-.18-.21-.27-.32,0,0,0,0-.01,0-.14-.15-.28-.3-.44-.44-.09-.09-.2-.18-.3-.27-.05-.04-.09-.08-.13-.12-.05-.04-.1-.09-.15-.13-.26-.22-.52-.42-.8-.62-.94-.65-2-1.15-3.15-1.5-.05-.02-.1-.03-.15-.04-.16-.05-.32-.1-.5-.14-.13-.03-.26-.06-.4-.09-.05,0-.09-.02-.14-.03-.1-.02-.19-.03-.29-.05-.06-.01-.11-.01-.18-.02-.1-.01-.2-.02-.29-.04-.06-.01-.13-.01-.2-.02-.1,0-.21-.02-.31-.03-.07,0-.14,0-.21-.01-.11,0-.22-.01-.33-.02-.07,0-.14,0-.21,0-.13,0-.26,0-.39-.01-.06,0-.13,0-.19,0-.2,0-.4,0-.61,0-.14,0-.29,0-.43,.01-.32,.01-.66,.02-1.01,.04h0c-.28,.02-.58,.04-.88,.06-.1,0-.21,.02-.31,.03-.22,.02-.43,.04-.65,.06-.12,.01-.24,.02-.36,.03-.23,.02-.46,.05-.7,.07-.11,.02-.22,.03-.34,.04-.33,.03-.68,.08-1.03,.13h-.04c-.65,.09-1.34,.19-2.05,.29l-11.57,1.73c-.15,.02-.31,.06-.45,.1h0s-.03,0-.05,.01c-.02,0-.05,.01-.07,.03-.11,.04-.21,.07-.31,.11-.02,0-.04,.02-.05,.02-.03,0-.06,.02-.09,.04-.02,0-.05,.03-.08,.04-.08,.04-.16,.07-.24,.12-.04,.02-.07,.04-.1,.05-.13,.07-.25,.17-.37,.25-.02,.01-.04,.03-.05,.04,0,0,0,0,0,0,0,0,0,0-.02,.02-.11,.08-.2,.16-.29,.25-.02,.02-.05,.05-.07,.07,0,0,0,0,0,.01,0,0-.01,.02-.02,.02-.07,.07-.13,.15-.2,.22v.02s-.02,0-.02,0c-.02,.03-.05,.06-.07,.09-.02,.02-.04,.04-.04,.06-.64,.86-.9,1.95-.72,3.01l2.44,15.27c.21,1.33,1.06,2.41,2.18,2.99l-.02,.03v.02Zm142.54,63.28c0-.06,0-.13,0-.2,0-.2,.02-.4,.01-.61,0-.11,0-.23,0-.35,0-.22-.02-.44-.04-.67,0-.04-.01-.07-.01-.12-.01-.07,0-.13-.01-.2-.03-.33-.08-.67-.13-1.02-.04-.25-.09-.5-.14-.75l-.02-.11c-.02-.08-.04-.16-.06-.24-.03-.12-.06-.24-.09-.35-.4-1.44-1.05-2.73-1.92-3.85,0,0-.01-.02-.02-.03-.09-.11-.19-.22-.28-.32-.09-.1-.16-.2-.25-.3-.15-.16-.3-.31-.45-.47-.04-.04-.07-.09-.12-.11-.06-.06-.13-.11-.19-.17-.04-.04-.08-.06-.12-.1-1.05-.91-2.27-1.62-3.65-2.1-.09-.03-.18-.07-.28-.1-.11-.03-.22-.06-.33-.1-.16-.05-.33-.1-.5-.14-.36-.09-.76-.16-1.21-.21-.45-.05-.95-.09-1.48-.09-2.15-.05-5.05,.2-8.87,.77l-11.56,1.73c-1.1,.17-2.03,.76-2.64,1.6-.16,.22-.31,.46-.42,.72-.04,.08-.07,.16-.1,.24,0,.02-.02,.04-.02,.06,0,.01,0,.03-.02,.03,0,0,0,0,0,.01-.03,.1-.06,.19-.08,.29,0,.03-.02,.06-.02,.08h0s0,.04,0,.05c0,.02,0,.04-.01,.06,0,0-.01,.05-.01,.08,0,.03-.02,.06-.02,.1,0,.03-.01,.05-.01,.08-.01,.12-.03,.23-.04,.36,0,.03,0,.06,0,.09,0,.1,0,.19,0,.28v.03s.01,.05,.01,.08c0,.12,.02,.25,.04,.36l2.44,15.27c.21,1.33,1.06,2.41,2.18,2.99,.74,.38,1.59,.54,2.47,.41l11.13-1.67c3.89-.58,7.17-1.43,9.73-2.51,.56-.24,1.08-.49,1.57-.76,.8-.44,1.52-.92,2.15-1.46,.62-.52,1.17-1.07,1.62-1.68,.17-.23,.34-.46,.49-.71,.14-.22,.26-.44,.38-.67,.03-.05,.06-.12,.08-.17,.06-.14,.12-.28,.17-.41,.37-.92,.61-1.93,.67-3.04h-.01s0,0,0,0Zm-199.07-40.68c.9,.73,2.05,1.04,3.19,.87l14.47-2.17c1.31-.2,2.44-1.02,3.01-2.2,.05-.1,.09-.2,.13-.31,.03-.06,.06-.14,.07-.21,.02-.08,.05-.16,.07-.24,.01-.07,.04-.14,.05-.21,.02-.08,.03-.17,.04-.26,0-.04,.01-.08,.01-.12,0-.03,.01-.06,.01-.08,0-.09,0-.18,.01-.27,0-.03,0-.06,0-.1,0-.04,0-.07,0-.11,0-.09-.01-.18-.02-.27,0-.06-.01-.12-.02-.18v-.08c-.02-.07-.04-.15-.05-.22,0-.05-.02-.11-.04-.17-.08-.31-.2-.62-.37-.91l-10.49-18.85c-.1-.19-.23-.37-.36-.54-.1-.12-.21-.25-.33-.36-.02-.02-.05-.05-.07-.07-.12-.11-.23-.21-.36-.31,0,0-.02-.01-.03-.02-.13-.1-.25-.18-.39-.25-.02,0-.04-.02-.06-.04-.14-.08-.3-.15-.45-.21,0,0-.02-.01-.03-.02-.16-.06-.32-.11-.48-.16,0,0,0,0-.01,0-.02,0-.05-.01-.06-.02-.15-.03-.29-.06-.45-.08-.01,0-.02,0-.04,0-.15-.01-.31-.03-.46-.03-.03,0-.06,0-.09,0-.17,0-.34,.02-.51,.04h0c-1.68,.25-3.02,1.55-3.34,3.22l-3.98,21.02c-.06,.31-.08,.62-.06,.92,0,.02,0,.03,0,.06,.07,1.14,.62,2.2,1.51,2.92h0s-.01,0-.01,0Z"/>
  <text/>
</svg>