<svg width="113" height="98" viewBox="0 0 113 98" fill="none" xmlns="http://www.w3.org/2000/svg">
<path d="M56.9192 97.5281C38.9108 97.5281 20.9024 97.5281 2.89401 97.5338C2.39393 97.5338 1.9223 97.4485 1.4961 97.2209C0.876684 96.8909 0.73461 96.0717 1.24037 95.7019C1.54155 95.48 1.8882 95.2979 2.30871 95.3093C3.21794 95.3321 4.12716 95.315 5.03639 95.315C6.24111 95.315 7.44583 95.3321 8.65056 95.3093C9.20746 95.2979 9.76439 95.2354 10.3156 95.1557C10.793 95.0875 11.1169 94.7632 11.2305 94.3194C11.3442 93.8757 11.401 93.4091 11.401 92.954C11.4067 72.0974 11.4067 51.2465 11.401 30.3898C11.401 29.9347 11.3385 29.4682 11.2305 29.0244C11.1453 28.666 10.9123 28.3645 10.5259 28.2507C10.2247 28.1654 9.92348 28.063 9.61662 28.0345C8.09935 27.8866 6.62755 27.5509 5.18983 27.056C4.00784 26.6463 2.83721 26.1969 1.78592 25.5028C1.2347 25.1444 0.80848 24.6551 0.950546 23.9212C1.01306 23.5969 1.14944 23.267 1.33696 22.9996C1.97911 22.0665 2.66103 21.1619 3.33159 20.2517C4.2465 19.0114 5.17276 17.7769 6.09336 16.5366C6.90029 15.4557 7.71292 14.3747 8.51418 13.2881C9.31544 12.2015 10.1167 11.1148 10.8895 10.0054C11.0657 9.7551 11.1907 9.44219 11.2362 9.14066C11.3271 8.56605 11.3896 7.98575 11.3953 7.40545C11.418 5.68163 11.401 3.96349 11.401 2.23966C11.401 0.970965 11.9522 0.379287 13.2251 0.28826C13.3956 0.276882 13.5718 0.28826 13.7422 0.28826C43.0535 0.28826 72.3647 0.28826 101.67 0.29395C102.051 0.29395 102.46 0.328085 102.812 0.458937C103.415 0.680816 103.756 1.10182 103.847 1.80728C104.119 3.93504 103.955 6.06849 103.955 8.19625C103.955 9.23169 104.307 10.1021 104.818 10.9214C105.841 12.5485 106.938 14.1358 107.995 15.7458C109.194 17.5778 110.387 19.4154 111.575 21.253C111.927 21.7991 112.291 22.3396 112.615 22.9028C112.78 23.1873 112.905 23.5173 112.962 23.8416C113.098 24.621 112.729 25.1558 112.035 25.4801C110.484 26.1969 108.87 26.7374 107.211 27.1413C106.557 27.3006 105.892 27.4087 105.25 27.5964C104.529 27.8069 103.966 28.0743 103.966 29.1667C103.983 50.6832 103.977 72.1998 103.977 93.722C103.977 94.712 104.244 94.968 105.199 95.1842C105.711 95.298 106.211 95.3093 106.722 95.3093C108.296 95.3093 109.865 95.315 111.439 95.3093C111.763 95.3093 112.052 95.3662 112.348 95.5085C112.712 95.6791 112.967 95.9238 112.962 96.3277C112.956 96.743 112.757 97.0901 112.348 97.2323C111.99 97.3631 111.615 97.4428 111.24 97.5224C111.075 97.5566 110.899 97.5281 110.723 97.5281H56.9192ZM53.7085 66.101C53.7085 57.0494 53.7085 48.0036 53.7085 38.9521C53.7085 38.7814 53.7142 38.605 53.7085 38.4344C53.6573 37.5924 53.3505 37.2226 52.4924 37.0178C52.1912 36.9438 51.873 36.8869 51.5661 36.8869C43.1898 36.8812 34.8136 36.8812 26.4373 36.8869C26.0566 36.8869 25.6702 36.9779 25.2894 37.0291C24.7496 37.1031 24.4882 37.5013 24.3916 37.9565C24.2779 38.5254 24.2268 39.1114 24.2268 39.6917C24.2211 57.2998 24.2211 74.9022 24.2268 92.5102C24.2268 93.0905 24.295 93.6765 24.3802 94.2455C24.4541 94.7177 24.7837 95.0419 25.2326 95.1443C25.6986 95.2524 26.193 95.3093 26.6703 95.3093C34.8988 95.3207 43.1273 95.315 51.3558 95.315C51.5263 95.315 51.7139 95.3548 51.8673 95.3036C52.3105 95.1614 52.822 95.2638 53.2084 94.8599C53.6175 94.4332 53.6971 93.9439 53.6971 93.3921C53.6971 84.295 53.6971 75.198 53.6971 66.101H53.7085ZM93.9531 58.6481C93.9531 51.9861 93.9531 45.3183 93.9531 38.6562C93.9531 38.4856 93.9588 38.3092 93.9531 38.1385C93.919 37.5582 93.5838 37.1543 92.9985 37.0348C92.6461 36.9609 92.2824 36.8926 91.9244 36.8926C83.2981 36.8869 74.6775 36.8869 66.0512 36.8869C65.9035 36.8869 65.7557 36.8698 65.608 36.8869C64.6647 37.0178 64.0225 37.2795 64.0225 38.5482C64.0225 51.9007 64.0225 65.2533 64.0225 78.6115C64.0225 79.8688 64.659 80.2045 65.608 80.2557C66.8582 80.324 68.114 80.2841 69.3642 80.2614C69.6711 80.2614 69.995 80.1931 70.2791 80.0793C70.8133 79.8632 71.0179 79.1918 70.6883 78.6229C70.3757 78.0824 69.9666 77.6045 69.6086 77.0868C68.8357 75.9774 68.2561 74.7998 68.2902 73.4002C68.33 71.8983 68.9607 70.749 70.3416 70.1005C70.9667 69.8046 71.6316 69.5714 72.2908 69.3552C73.3421 69.0138 73.8308 67.3924 72.6886 66.6016C72.4954 66.4651 72.2794 66.3513 72.0635 66.2603C71.8021 66.1465 71.518 66.0782 71.2566 65.9587C70.8417 65.7653 70.6826 65.4069 70.6485 64.9631C70.6087 64.4795 70.9099 64.2577 71.2452 64.0472C71.5066 63.8822 71.785 63.8537 72.0805 63.9448C72.2169 63.9846 72.359 64.0301 72.5011 64.0415C73.4387 64.1268 74.2229 64.5421 74.8366 65.2248C75.4674 65.9303 75.7345 66.8406 75.7629 67.7508C75.7856 68.3254 75.5981 68.9569 75.3367 69.4804C75.081 69.9981 74.7798 70.5044 74.2627 70.897C73.5978 71.3976 72.8761 71.6593 72.109 71.8641C71.177 72.1088 70.7792 72.5696 70.6712 73.2011C70.5462 73.9065 70.6826 74.612 71.0917 75.2264C71.4327 75.7385 71.7737 76.2505 72.5238 76.1481C72.9386 76.0912 73.217 75.8238 73.5012 75.5735C73.8478 75.2606 74.132 74.8737 74.5013 74.595C76.3198 73.258 78.3883 72.6094 80.6159 72.4558C81.3092 72.4103 81.8206 72.1372 82.0423 71.4545C82.1502 71.1132 82.2184 70.7604 82.2923 70.4077C82.4003 69.9127 82.4287 69.395 82.6105 68.9342C82.9344 68.1263 83.8039 67.6712 84.6051 68.4961C84.6904 68.5815 84.7756 68.6782 84.8665 68.7578C85.7701 69.5088 86.0372 69.5372 86.9748 68.7351C87.0885 68.6384 87.1794 68.5189 87.2873 68.4222C87.526 68.223 87.759 68.0012 88.0261 67.8419C88.4069 67.6086 88.7876 67.5631 89.2365 67.7963C89.6968 68.0353 89.8389 68.4392 89.9355 68.8375C90.1287 69.634 90.2651 70.4475 90.2537 71.2781C90.2423 71.8698 90.2537 72.4558 90.2537 73.0475C90.2423 74.4812 89.782 75.7555 88.7876 76.7967C88.2477 77.3599 88.1114 78.0198 88.2023 78.7481C88.3159 79.6526 88.941 80.2329 89.8502 80.2728C90.7083 80.3069 91.5721 80.324 92.4302 80.2671C92.9985 80.2273 93.6178 80.1249 93.8281 79.4421C93.9077 79.1918 93.9418 78.9244 93.9418 78.6627C93.9474 72.0007 93.9418 65.3329 93.9418 58.6709L93.9531 58.6481ZM57.2488 17.5038C57.2488 16.0303 57.2601 14.5568 57.2431 13.0833C57.2374 12.6793 57.1578 12.264 57.0612 11.8715C56.9703 11.496 56.6975 11.2286 56.3282 11.1262C55.9588 11.0238 55.5724 10.9328 55.1916 10.9271C52.3446 10.91 49.4976 10.8986 46.6506 10.9271C45.963 10.9328 45.2242 11.0181 44.7696 11.678C44.5821 11.9568 44.4116 12.2527 44.2866 12.5599C44.0195 13.2255 43.7808 13.9082 43.5479 14.5852C42.6557 17.1966 41.7805 19.8136 40.8656 22.4136C40.4906 23.4775 40.9622 24.1033 41.7237 24.5243C43.4967 25.5142 45.4231 26.0319 47.4121 26.2196C48.5884 26.3277 49.7874 26.3164 50.9864 26.1343C52.6969 25.8726 54.2881 25.3208 55.8167 24.5356C56.3736 24.2512 56.851 23.8928 57.0328 23.2783C57.1578 22.8403 57.2317 22.3794 57.2374 21.9243C57.2601 20.4508 57.2488 18.9773 57.2488 17.5038ZM35.1318 10.9157C33.535 10.9157 31.9438 10.9043 30.347 10.9214C29.864 10.9271 29.3866 11.0124 28.9093 11.0921C28.7502 11.1205 28.591 11.2229 28.4717 11.331C28.1364 11.6439 27.8182 11.9625 27.608 12.4006C26.6931 14.3406 25.7441 16.2635 24.8064 18.1922C24.1302 19.5803 23.4369 20.9571 22.7834 22.351C22.3912 23.1816 22.6243 23.7904 23.4369 24.2227C24.4598 24.7689 25.5735 25.1046 26.693 25.3492C27.8182 25.5938 28.9832 25.6678 30.1311 25.81C30.2959 25.8328 30.472 25.8043 30.6425 25.7816C30.8812 25.7531 31.1142 25.6962 31.3528 25.6678C31.9325 25.6109 32.5235 25.628 33.086 25.4971C34.3931 25.1899 35.6774 24.7917 36.8707 24.1488C37.6833 23.7107 38.263 23.0735 38.5471 22.1746C38.746 21.5374 39.0244 20.9173 39.2404 20.2858C40.1098 17.7712 40.9736 15.2509 41.8203 12.7249C41.9226 12.412 41.9226 12.0535 41.9169 11.7179C41.9112 11.4448 41.5134 11.0921 41.2236 11.0636C40.4962 11.0067 39.7746 10.9328 39.0472 10.9157C37.7459 10.8929 36.4445 10.91 35.1432 10.91L35.1318 10.9157ZM59.4593 17.4412C59.4593 19.0399 59.4764 20.6328 59.4593 22.2315C59.448 23.1532 59.8685 23.8416 60.5902 24.3138C61.5164 24.9168 62.528 25.3492 63.5906 25.6962C64.6249 26.0319 65.6705 26.3391 66.7445 26.396C68.1027 26.4643 69.4608 26.4643 70.8076 26.1343C72.2851 25.7759 73.7058 25.2809 75.0014 24.4788C75.6549 24.0748 75.9106 23.2158 75.6322 22.4705C75.1548 21.1904 74.6548 19.916 74.1661 18.6416C73.6319 17.2307 73.1091 15.8141 72.5636 14.4032C72.251 13.5953 71.9157 12.8045 71.5634 12.0137C71.3588 11.5472 70.9838 11.2058 70.4951 11.0977C70.0064 10.984 69.4892 10.9498 68.9835 10.9384C68.1254 10.9157 67.2673 10.9328 66.4092 10.9328C64.7897 10.9328 63.1701 10.91 61.5505 10.9441C61.0846 10.9555 60.5674 11.0238 60.164 11.2343C59.6412 11.5074 59.465 12.0592 59.465 12.6623C59.4764 14.2609 59.465 15.8539 59.465 17.4526L59.4593 17.4412ZM11.634 25.8214C11.634 25.8214 11.634 25.8669 11.634 25.884C12.6 25.8043 13.5888 25.81 14.5378 25.628C15.5209 25.4402 16.4813 25.1103 17.4246 24.7689C18.6862 24.3138 19.6863 23.5912 20.2659 22.277C21.1183 20.337 22.1071 18.4539 23.0391 16.548C23.6017 15.3988 24.1983 14.2666 24.7382 13.106C24.92 12.7249 25.028 12.2925 25.0906 11.8715C25.1417 11.5415 24.7837 11.1205 24.4768 11.0693C24.0733 11.001 23.6642 10.9214 23.255 10.9157C20.408 10.9043 17.561 10.8872 14.714 10.9157C13.8332 10.9271 12.9808 11.1376 12.3898 11.8942C12.1966 12.1389 11.992 12.3778 11.8045 12.6281C10.7361 14.0561 9.66209 15.4841 8.59943 16.9121C7.66747 18.1694 6.7355 19.4267 5.81491 20.6897C5.32052 21.3668 4.81476 22.0438 4.35446 22.7492C4.00213 23.2897 4.04191 24.1829 4.74657 24.3991C5.26937 24.5584 5.76377 24.8315 6.28089 25.0078C7.79817 25.5256 9.35521 25.8328 10.9634 25.7986C11.185 25.7986 11.4067 25.7986 11.6283 25.7986L11.634 25.8214ZM80.417 10.9157C79.826 10.9157 79.235 10.8986 78.6497 10.9157C77.5075 10.9612 76.3596 10.819 75.2174 11.0409C74.2343 11.2343 74.007 11.6382 74.3081 12.5769C74.6036 13.4872 74.9389 14.3861 75.2799 15.285C76.047 17.3274 76.8199 19.3698 77.6041 21.4066C77.8428 22.0324 78.0701 22.6753 78.394 23.2613C78.9338 24.2398 79.8658 24.7803 80.8489 25.2013C81.8206 25.6166 82.8435 25.8328 83.9062 26.0035C85.145 26.2026 86.3384 26.066 87.526 25.9011C88.9012 25.7133 90.2253 25.2468 91.5323 24.7689C92.1006 24.5584 92.6575 24.3138 93.0553 23.8245C93.2996 23.523 93.4474 23.2328 93.2257 22.8403C92.9075 22.277 92.6404 21.6854 92.3336 21.1164C91.8789 20.2687 91.4073 19.4267 90.9356 18.5904C90.2253 17.3331 89.5036 16.0872 88.7819 14.8356C88.2534 13.9196 87.7249 12.9979 87.168 12.099C86.8725 11.6212 86.5031 11.1546 85.9121 11.0693C85.2416 10.9669 84.5597 10.9271 83.8834 10.9157C82.7299 10.8929 81.5763 10.91 80.4227 10.91L80.417 10.9157ZM96.0898 10.9157C94.9874 10.9157 93.8793 10.9157 92.7768 10.9157C92.1233 10.9157 91.4755 10.9157 90.8163 11.0465C89.89 11.2229 89.873 11.5131 90.0435 12.3835C90.0662 12.4973 90.1514 12.5997 90.2082 12.7078C90.5378 13.3222 90.8561 13.9423 91.197 14.5568C91.6403 15.359 92.0892 16.1554 92.5438 16.9462C93.2428 18.1524 93.9531 19.3528 94.6521 20.5589C95.1579 21.4293 95.6238 22.3339 96.1864 23.1702C96.5615 23.7278 97.0502 24.1943 97.6867 24.5186C99.0278 25.2013 100.437 25.5256 101.937 25.5256C102.574 25.5256 103.222 25.5711 103.852 25.5028C104.614 25.4175 105.37 25.2468 106.114 25.0818C107.188 24.8372 108.279 24.6267 109.251 24.0634C109.779 23.7562 109.956 23.3807 109.728 22.8232C109.552 22.3794 109.325 21.9527 109.063 21.5488C107.711 19.4438 106.347 17.3502 104.978 15.2566C104.21 14.0903 103.455 12.9183 102.631 11.7918C102.392 11.4675 101.971 11.2002 101.579 11.0921C101.028 10.9441 100.431 10.9328 99.8518 10.9214C98.6016 10.8986 97.3457 10.9157 96.0955 10.9157H96.0898Z" fill="black"/>
<path d="M30.4323 63.1483C32.103 62.9605 33.3646 64.5421 33.3476 65.9815C33.3248 67.5574 31.9212 68.7578 30.4267 68.7863C28.8526 68.8147 27.6137 67.1535 27.5853 65.8734C27.5569 64.6104 29.006 62.8866 30.4323 63.1426V63.1483Z" fill="black"/>
<path d="M79.0077 61.6691C75.5924 61.6691 72.1829 61.6691 68.7676 61.6691C68.6426 61.6691 68.5232 61.6691 68.3982 61.6691C67.6253 61.6577 67.2333 61.322 67.131 60.5654C67.1082 60.3947 67.1253 60.224 67.1253 60.0477C67.1253 56.0652 67.1253 52.0828 67.1253 48.1003C67.1253 47.9752 67.1196 47.8557 67.1253 47.7305C67.1651 47.0706 67.4776 46.7634 68.1311 46.7634C70.0235 46.7634 71.9158 46.7406 73.8024 46.7804C74.257 46.7918 74.5127 46.6268 74.7457 46.2912C75.2458 45.58 75.7459 44.8745 76.2516 44.1691C76.3482 44.0325 76.4278 43.8732 76.5472 43.7595C76.7404 43.5774 76.729 43.3726 76.6835 43.1507C76.6438 42.963 76.5983 42.7752 76.5528 42.5875C76.1891 41.1367 76.962 39.8794 78.411 39.521C80.2465 39.0659 81.9116 40.5963 81.5706 42.6159C81.5706 42.6387 81.5649 42.6671 81.5479 42.6842C81.0762 43.2361 81.4399 43.64 81.7638 44.0781C82.3094 44.812 82.8436 45.5572 83.3379 46.3253C83.5539 46.6553 83.7982 46.7691 84.179 46.7691C85.9974 46.7577 87.8102 46.7634 89.6286 46.7634C90.6117 46.7634 90.8618 47.0137 90.8618 48.0207C90.8618 52.0998 90.8618 56.179 90.8618 60.2582C90.8618 61.2765 90.4811 61.6634 89.4752 61.6634C85.9861 61.6634 82.5026 61.6634 79.0134 61.6634L79.0077 61.6691ZM79.0077 60.0477C82.1275 60.0477 85.2473 60.0477 88.3671 60.0477C88.5376 60.0477 88.7137 60.0363 88.8842 60.0477C89.1286 60.059 89.2593 59.9794 89.2365 59.712C89.2252 59.5925 89.2365 59.4674 89.2365 59.3422C89.2365 55.923 89.2365 52.5038 89.2365 49.0846C89.2365 48.9366 89.2365 48.7887 89.2365 48.6408C89.2252 48.3734 89.0831 48.2426 88.816 48.2369C88.6683 48.2369 88.5205 48.2369 88.3728 48.2369C82.0821 48.2369 75.7913 48.2369 69.5063 48.2369C69.3358 48.2369 69.1597 48.2141 68.9949 48.2482C68.9039 48.2653 68.7903 48.3734 68.7676 48.4587C68.7278 48.6237 68.7505 48.8001 68.7505 48.9708C68.7505 52.4127 68.7505 55.8547 68.7505 59.3024C68.7505 59.4503 68.7562 59.5982 68.7505 59.7461C68.7391 59.968 68.8528 60.0477 69.0631 60.042C69.2335 60.0363 69.4097 60.042 69.5802 60.042C72.7227 60.042 75.8709 60.042 79.0134 60.042L79.0077 60.0477ZM78.9054 46.7691C79.6158 46.7691 80.3204 46.7691 81.0308 46.7691C81.1955 46.7691 81.366 46.7292 81.5308 46.7065C81.457 46.5642 81.4002 46.4106 81.3092 46.2798C80.9455 45.7222 80.5762 45.159 80.1897 44.6128C80.1272 44.5218 79.9567 44.4535 79.8374 44.4592C79.3316 44.4706 78.8145 44.5958 78.3315 44.5218C78.0473 44.4763 77.9167 44.5616 77.7973 44.7209C77.3711 45.3012 76.962 45.8872 76.5585 46.4789C76.4505 46.6382 76.4221 46.7747 76.7119 46.7691C77.445 46.7577 78.1781 46.7691 78.9111 46.7691H78.9054Z" fill="black"/>
<path d="M83.3378 54.3016C83.3378 53.2434 83.3378 52.1909 83.3378 51.1327C83.3378 50.888 83.3492 50.6775 83.5367 50.4557C83.8947 50.029 84.5539 50.0403 84.8039 50.5751C84.9971 50.9904 85.179 51.4114 85.3552 51.8268C85.5256 52.225 85.6791 52.6289 85.8439 53.0272C85.8666 53.0841 85.912 53.1353 85.9461 53.1922C85.9632 53.1239 85.9859 53.0499 85.9916 52.9817C85.9916 52.4184 85.9632 51.8495 86.003 51.2863C86.0314 50.8937 86.0371 50.4613 86.5258 50.2679C87.0088 50.0802 87.5373 50.3419 87.6055 50.8596C87.6168 50.9563 87.6055 51.0587 87.6055 51.1554C87.6055 53.2434 87.6055 55.3313 87.5998 57.4249C87.5998 57.6297 87.5714 57.8801 87.4577 58.0394C87.1225 58.5059 86.5371 58.4774 86.2076 57.9768C85.9973 57.6582 85.8609 57.2884 85.6961 56.9413C85.6791 56.9015 85.6961 56.8389 85.6791 56.7991C85.4518 56.2871 85.2244 55.7808 84.9915 55.2687C84.9801 55.8092 84.963 56.344 84.9517 56.8845C84.946 57.1519 84.9744 57.4306 84.9346 57.6923C84.8835 58.0394 84.372 58.4376 84.0538 58.4149C83.6844 58.3921 83.3321 57.9882 83.3264 57.5501C83.3208 56.4691 83.3264 55.3882 83.3264 54.3073L83.3378 54.3016Z" fill="black"/>
<path d="M74.2114 54.3072C74.075 55.1549 74.0978 56.1392 73.7455 57.0494C73.5522 57.5387 73.3306 58.0166 72.7964 58.2556C72.1543 58.5457 71.3076 58.3295 70.9666 57.7094C70.62 57.0722 70.404 56.3838 70.3586 55.6499C70.3415 55.3654 70.2222 55.081 70.2279 54.7965C70.2506 53.4937 70.3074 52.1909 70.9155 50.9847C71.211 50.4045 71.6542 50.1257 72.3134 50.1484C72.8362 50.1655 73.2113 50.4443 73.4329 50.8539C73.6943 51.3318 73.9046 51.8609 74.0239 52.39C74.1546 52.976 74.1489 53.5904 74.2114 54.3016V54.3072ZM72.643 54.2447C72.643 54.2447 72.5976 54.239 72.5748 54.2333C72.5748 53.9887 72.6032 53.7383 72.5691 53.4994C72.5009 53.0499 72.3986 52.6119 72.302 52.1681C72.285 52.0998 72.2339 52.0429 72.1998 51.9804C72.177 52.0486 72.1543 52.1169 72.1316 52.1795C71.7622 53.1865 71.819 54.2333 71.8531 55.2744C71.8645 55.5816 71.9724 55.8832 72.0463 56.1904C72.069 56.2814 72.1372 56.3554 72.1884 56.4407C72.2509 56.3554 72.3532 56.2757 72.3702 56.179C72.4725 55.5361 72.5521 54.8875 72.643 54.2447Z" fill="black"/>
<path d="M76.3085 50.1598C76.7518 50.1428 77.2462 50.1769 77.6951 50.4841C78.6896 51.1497 79.0931 52.2705 78.826 53.4482C78.5646 54.5974 77.9451 55.3598 76.7802 55.6215C76.5813 55.667 76.5586 55.7751 76.5529 55.9287C76.5529 56.3952 76.57 56.8617 76.5415 57.3282C76.5302 57.5615 76.5017 57.8346 76.3824 58.0166C76.0414 58.5286 75.4448 58.5685 75.0925 57.9995C74.9618 57.789 74.9333 57.4932 74.9333 57.2372C74.922 55.2744 74.9276 53.3059 74.9276 51.3432C74.9276 51.218 74.9163 51.0928 74.9333 50.9734C75.0129 50.45 75.3368 50.1769 75.871 50.1655C75.996 50.1655 76.1153 50.1655 76.3029 50.1655L76.3085 50.1598ZM76.5529 52.8451C76.5529 52.8451 76.5529 52.8451 76.5586 52.8451C76.5586 53.1637 76.5529 53.4823 76.5586 53.8009C76.5586 53.9545 76.6552 54.0285 76.7973 53.9431C77.3201 53.6302 77.4962 52.3729 77.0643 51.9747C76.9677 51.8836 76.8086 51.8609 76.6779 51.804C76.6381 51.9292 76.5699 52.0543 76.5586 52.1795C76.5358 52.4014 76.5586 52.6232 76.5586 52.8394L76.5529 52.8451Z" fill="black"/>
<path d="M79.502 54.1992C79.502 53.1694 79.502 52.1397 79.502 51.1099C79.502 50.4898 79.8202 50.1769 80.4339 50.1655C80.8488 50.1598 81.2693 50.1598 81.6841 50.1655C82.2694 50.1769 82.5479 50.3988 82.5934 50.871C82.6388 51.3034 82.332 51.6788 81.8319 51.7756C81.6216 51.8154 81.275 51.7528 81.2181 51.8609C81.1045 52.0714 81.1443 52.3729 81.1216 52.6346C81.1159 52.7086 81.1216 52.7825 81.1216 52.8565C81.1291 53.1941 81.2958 53.378 81.6216 53.4084C82.0478 53.4482 82.4684 53.8464 82.4343 54.1821C82.4002 54.5121 82.0137 54.842 81.6216 54.8819C81.1329 54.9274 81.1329 54.9274 81.1272 55.4337C81.1272 55.7751 81.1386 56.1221 81.1272 56.4635C81.1159 56.7252 81.2295 56.8162 81.4739 56.7991C81.5932 56.7877 81.7183 56.7877 81.8433 56.7991C82.2581 56.8333 82.5365 57.0722 82.599 57.4363C82.6672 57.8232 82.5479 58.0792 82.1671 58.2669C82.0024 58.3523 81.8035 58.4035 81.6216 58.4149C81.3034 58.4376 80.9795 58.3921 80.6669 58.4262C79.9509 58.5059 79.4679 57.9768 79.502 57.2884C79.5475 56.2586 79.5134 55.2289 79.5134 54.1992H79.502Z" fill="black"/>
</svg>
