<svg width="18" height="17" viewBox="0 0 18 17" fill="none" xmlns="http://www.w3.org/2000/svg">
<path d="M1 4.26562V16.2656H17.5001V4.26562" stroke="black" stroke-linecap="round" stroke-linejoin="round"/>
<path d="M9.97855 0.162071C9.78329 -0.0331907 9.46671 -0.0331907 9.27145 0.162071L6.08947 3.34405C5.8942 3.53931 5.8942 3.8559 6.08947 4.05116C6.28473 4.24642 6.60131 4.24642 6.79657 4.05116L9.625 1.22273L12.4534 4.05116C12.6487 4.24642 12.9653 4.24642 13.1605 4.05116C13.3558 3.8559 13.3558 3.53931 13.1605 3.34405L9.97855 0.162071ZM9.125 12.6406C9.125 12.9168 9.34886 13.1406 9.625 13.1406C9.90114 13.1406 10.125 12.9168 10.125 12.6406L9.125 12.6406ZM9.125 0.515625L9.125 12.6406L10.125 12.6406L10.125 0.515625L9.125 0.515625Z" fill="black"/>
</svg>
